<?xml version="1.0" standalone="no"?>
<!DOCTYPE svg PUBLIC "-//W3C//DTD SVG 20010904//EN"
 "http://www.w3.org/TR/2001/REC-SVG-20010904/DTD/svg10.dtd">
<svg version="1.0" xmlns="http://www.w3.org/2000/svg"
 width="518.000000pt" height="518.000000pt" viewBox="0 0 518.000000 518.000000"
 preserveAspectRatio="xMidYMid meet">
<metadata>
Created by potrace 1.14, written by Peter Selinger 2001-2017
</metadata>
<g transform="translate(0.000000,518.000000) scale(0.100000,-0.100000)"
fill="#000000" stroke="none">
<path d="M3040 5164 c0 -9 14 -29 30 -44 17 -15 30 -35 30 -44 0 -9 5 -16 10
-16 6 0 10 -9 10 -20 0 -11 5 -20 10 -20 6 0 10 -9 10 -19 0 -11 6 -22 13 -24
9 -4 8 -8 -3 -17 -11 -9 -12 -13 -2 -17 19 -8 14 -23 -8 -23 -11 0 -20 5 -20
10 0 6 -9 10 -20 10 -11 0 -20 5 -20 10 0 6 -18 10 -40 10 -22 0 -40 5 -40 10
0 6 -9 10 -20 10 -11 0 -20 5 -20 10 0 6 -18 10 -40 10 -22 0 -40 5 -40 10 0
6 -18 10 -40 10 -22 0 -40 5 -40 10 0 6 -27 10 -60 10 -33 0 -60 4 -60 10 0 6
-43 10 -110 10 -67 0 -110 -4 -110 -10 0 -5 23 -10 50 -10 28 0 50 -4 50 -10
0 -5 23 -10 50 -10 28 0 50 -4 50 -10 0 -5 18 -10 40 -10 22 0 40 -4 40 -10 0
-5 18 -10 40 -10 22 0 40 -4 40 -10 0 -5 18 -10 40 -10 22 0 40 -4 40 -10 0
-5 18 -10 40 -10 22 0 40 -4 40 -10 0 -5 18 -10 40 -10 22 0 40 -4 40 -10 0
-5 14 -10 30 -10 17 0 30 -4 30 -10 0 -5 7 -10 16 -10 8 0 22 -6 30 -14 16
-17 19 -46 4 -46 -5 0 -10 -7 -10 -16 0 -9 -13 -29 -30 -44 -16 -15 -30 -33
-30 -39 0 -17 -168 -181 -185 -181 -8 0 -15 -4 -15 -10 0 -5 -9 -10 -20 -10
-11 0 -20 -4 -20 -10 0 -5 14 -10 30 -10 17 0 30 5 30 10 0 6 8 10 18 10 10 0
24 9 32 20 8 11 20 20 27 20 17 0 103 86 103 103 0 7 9 19 20 27 11 8 20 22
20 32 0 10 7 18 15 18 25 0 65 46 65 75 0 14 5 25 10 25 6 0 10 18 10 39 0 22
6 42 13 45 10 5 10 7 0 12 -7 3 -13 19 -13 35 0 16 -4 29 -10 29 -5 0 -10 9
-10 20 0 11 -4 20 -10 20 -5 0 -10 14 -10 30 0 17 -4 30 -10 30 -5 0 -10 7
-10 15 0 9 -11 27 -25 40 -30 31 -115 37 -115 9z m160 -234 c0 -5 -4 -10 -10
-10 -5 0 -10 5 -10 10 0 6 5 10 10 10 6 0 10 -4 10 -10z"/>
<path d="M3660 5172 c0 -4 9 -14 20 -22 11 -8 20 -22 20 -32 0 -10 5 -18 10
-18 6 0 10 -18 10 -40 0 -22 5 -40 10 -40 6 0 10 -13 10 -30 0 -16 5 -30 10
-30 6 0 10 -16 10 -35 0 -49 -36 -85 -85 -85 -19 0 -35 -4 -35 -10 0 -5 -18
-10 -40 -10 -22 0 -40 -4 -40 -10 0 -5 -9 -10 -20 -10 -11 0 -20 -4 -20 -10 0
-5 -9 -10 -20 -10 -11 0 -20 -4 -20 -10 0 -5 -13 -10 -30 -10 -16 0 -30 -4
-30 -10 0 -5 -9 -10 -20 -10 -11 0 -20 -4 -20 -10 0 -5 -8 -10 -18 -10 -10 0
-24 -9 -32 -20 -8 -11 -21 -20 -30 -20 -9 0 -22 -9 -30 -20 -8 -11 -21 -20
-28 -20 -7 0 -31 -18 -52 -40 -21 -22 -46 -40 -54 -40 -9 0 -16 -7 -16 -16 0
-8 -6 -22 -14 -30 -8 -8 -22 -14 -30 -14 -9 0 -16 -8 -16 -20 0 -11 -4 -20
-10 -20 -5 0 -10 -4 -10 -10 0 -6 30 -10 70 -10 40 0 70 -4 70 -10 0 -5 14
-10 30 -10 17 0 30 5 30 10 0 6 9 10 20 10 11 0 20 5 20 10 0 6 14 10 30 10
17 0 30 5 30 10 0 6 9 10 20 10 11 0 20 5 20 10 0 6 9 10 20 10 11 0 20 5 20
10 0 6 8 10 18 10 10 0 24 9 32 20 8 11 21 20 28 20 8 0 27 14 42 30 15 17 33
30 40 30 7 0 25 14 40 30 25 26 35 30 84 30 31 0 56 -4 56 -10 0 -5 18 -10 40
-10 22 0 40 -4 40 -10 0 -5 9 -10 20 -10 11 0 20 -4 20 -10 0 -5 9 -10 20 -10
11 0 20 -4 20 -10 0 -5 7 -10 16 -10 22 0 53 -32 36 -38 -23 -7 -12 -22 18
-22 17 0 30 -4 30 -10 0 -5 14 -10 30 -10 17 0 30 -4 30 -10 0 -5 7 -10 16
-10 9 0 29 -13 44 -30 15 -16 33 -30 39 -30 17 0 84 -70 76 -78 -4 -4 -10 -1
-12 6 -3 6 -13 12 -24 12 -10 0 -19 5 -19 10 0 6 -9 10 -20 10 -11 0 -20 5
-20 10 0 6 -9 10 -20 10 -11 0 -20 5 -20 10 0 6 -13 10 -30 10 -16 0 -30 5
-30 10 0 6 -13 10 -30 10 -16 0 -30 5 -30 10 0 6 -27 10 -60 10 -33 0 -60 -4
-60 -10 0 -6 27 -10 60 -10 33 0 60 -4 60 -10 0 -5 14 -10 30 -10 17 0 30 -4
30 -10 0 -5 14 -10 30 -10 17 0 30 -4 30 -10 0 -5 8 -10 18 -10 10 0 24 -9 32
-20 8 -11 21 -20 30 -20 9 0 22 -9 30 -20 8 -11 21 -20 28 -20 7 0 31 -18 52
-40 21 -22 43 -40 50 -40 16 0 80 -67 80 -85 0 -8 5 -15 10 -15 6 0 10 -8 10
-18 0 -10 9 -24 20 -32 11 -8 20 -22 20 -32 0 -10 5 -18 10 -18 6 0 10 -9 10
-20 0 -11 5 -20 10 -20 6 0 10 -9 10 -20 0 -11 5 -20 10 -20 6 0 10 -13 10
-29 0 -16 6 -32 13 -34 9 -4 8 -8 -3 -17 -11 -9 -12 -13 -2 -17 7 -3 12 -24
12 -54 0 -27 5 -49 10 -49 6 0 10 -13 10 -30 0 -16 5 -30 10 -30 6 0 10 -18
10 -40 0 -22 5 -40 10 -40 6 0 10 -27 10 -60 0 -33 4 -60 10 -60 6 0 10 -22
10 -50 0 -27 5 -50 10 -50 6 0 10 -27 10 -60 0 -33 4 -60 10 -60 6 0 10 -30
10 -70 0 -40 4 -70 10 -70 6 0 10 -27 10 -60 0 -33 4 -60 10 -60 6 0 10 -18
10 -40 0 -22 5 -40 10 -40 6 0 10 -9 10 -20 0 -11 -4 -20 -10 -20 -5 0 -10 9
-10 20 0 11 -4 20 -10 20 -5 0 -10 14 -10 30 0 17 -4 30 -10 30 -5 0 -10 14
-10 30 0 17 -4 30 -10 30 -5 0 -10 18 -10 40 0 22 -4 40 -10 40 -5 0 -10 14
-10 30 0 17 -4 30 -10 30 -5 0 -10 9 -10 20 0 11 -4 20 -10 20 -5 0 -10 14
-10 30 0 17 -4 30 -10 30 -5 0 -10 9 -10 20 0 11 -4 20 -10 20 -5 0 -10 9 -10
20 0 11 -4 20 -10 20 -5 0 -10 14 -10 30 0 17 -4 30 -10 30 -5 0 -10 9 -10 20
0 11 -4 20 -10 20 -5 0 -10 9 -10 20 0 11 -4 20 -10 20 -5 0 -10 -9 -10 -20 0
-11 5 -20 10 -20 6 0 10 -9 10 -20 0 -11 5 -20 10 -20 6 0 10 -13 10 -30 0
-16 5 -30 10 -30 6 0 10 -9 10 -20 0 -11 5 -20 10 -20 6 0 10 -13 10 -30 0
-16 5 -30 10 -30 6 0 10 -9 10 -20 0 -11 5 -20 10 -20 6 0 10 -13 10 -30 0
-16 5 -30 10 -30 6 0 10 -13 10 -30 0 -16 5 -30 10 -30 6 0 10 -13 10 -30 0
-16 5 -30 10 -30 6 0 10 -18 10 -40 0 -22 5 -40 10 -40 6 0 10 -13 10 -30 0
-16 5 -30 10 -30 6 0 10 -22 10 -50 0 -27 5 -50 10 -50 6 0 10 -13 10 -30 0
-16 5 -30 10 -30 6 0 10 -22 10 -50 0 -27 5 -50 10 -50 6 0 10 -27 10 -60 0
-33 4 -60 10 -60 6 0 10 -18 10 -40 0 -22 5 -40 10 -40 6 0 10 -22 10 -50 0
-27 5 -50 10 -50 6 0 10 -22 10 -50 0 -27 5 -50 10 -50 6 0 10 -22 10 -50 0
-27 5 -50 10 -50 6 0 10 -27 10 -60 0 -33 4 -60 10 -60 6 0 10 -33 10 -80 0
-47 4 -80 10 -80 6 0 10 -37 10 -90 0 -53 4 -90 10 -90 6 0 10 -43 10 -110 0
-67 4 -110 10 -110 6 0 10 -107 10 -300 0 -193 -4 -300 -10 -300 -6 0 -10 -33
-10 -80 0 -47 -4 -80 -10 -80 -6 0 -10 -33 -10 -80 0 -47 -4 -80 -10 -80 -5 0
-10 -13 -10 -30 0 -16 -4 -30 -10 -30 -5 0 -10 -13 -10 -30 0 -16 -4 -30 -10
-30 -5 0 -10 -9 -10 -20 0 -11 -4 -20 -10 -20 -5 0 -10 -13 -10 -30 0 -16 -4
-30 -10 -30 -5 0 -10 -18 -10 -40 0 -22 -4 -40 -10 -40 -5 0 -10 -9 -10 -20 0
-11 -4 -20 -10 -20 -5 0 -10 -9 -10 -20 0 -13 -7 -20 -20 -20 -11 0 -20 -4
-20 -10 0 -5 -9 -10 -20 -10 -11 0 -20 -4 -20 -10 0 -5 -9 -10 -20 -10 -11 0
-20 -4 -20 -10 0 -5 -7 -10 -16 -10 -9 0 -29 -13 -44 -30 -17 -18 -38 -30 -54
-30 -14 0 -26 -4 -26 -10 0 -5 -9 -10 -20 -10 -11 0 -20 -4 -20 -10 0 -5 -13
-10 -30 -10 -16 0 -30 -4 -30 -10 0 -6 133 -10 380 -10 l380 0 0 2045 0 2046
-35 34 c-19 19 -40 35 -47 35 -8 0 -20 9 -28 20 -8 11 -22 20 -32 20 -10 0
-18 5 -18 10 0 6 -7 10 -16 10 -9 0 -29 14 -44 30 -15 17 -35 30 -44 30 -9 0
-16 5 -16 10 0 6 -13 10 -30 10 -16 0 -30 5 -30 10 0 6 -13 10 -30 10 -16 0
-30 5 -30 10 0 6 -13 10 -30 10 -16 0 -30 5 -30 10 0 6 -33 10 -80 10 -47 0
-80 4 -80 10 0 6 9 10 20 10 12 0 20 7 20 16 0 9 14 29 30 44 17 15 30 35 30
44 0 9 5 16 10 16 6 0 10 14 10 30 0 17 5 30 10 30 6 0 10 9 10 20 0 11 -4 20
-10 20 -5 0 -10 9 -10 20 0 11 -4 20 -10 20 -5 0 -10 14 -10 30 0 17 -4 30
-10 30 -5 0 -10 9 -10 20 0 11 -4 20 -10 20 -5 0 -10 9 -10 20 0 11 -4 20 -10
20 -5 0 -10 9 -10 20 0 11 -4 20 -10 20 -5 0 -10 8 -10 18 0 10 -9 24 -20 32
-11 8 -20 20 -20 27 0 17 -166 183 -183 183 -7 0 -19 9 -27 20 -8 11 -22 20
-32 20 -10 0 -18 5 -18 10 0 6 -8 10 -18 10 -10 0 -24 9 -32 20 -14 19 -26 20
-292 20 -153 0 -278 -4 -278 -8z m225 -287 c30 -30 55 -61 55 -70 0 -8 5 -15
10 -15 6 0 10 -8 10 -18 0 -10 9 -24 20 -32 11 -8 20 -22 20 -32 0 -10 5 -18
10 -18 6 0 10 -13 10 -30 0 -16 -4 -30 -10 -30 -5 0 -10 5 -10 10 0 6 -13 10
-30 10 -16 0 -30 5 -30 10 0 6 -13 10 -30 10 -16 0 -30 5 -30 10 0 6 -33 10
-80 10 -47 0 -80 4 -80 10 0 6 5 10 10 10 6 0 10 8 10 18 0 10 9 24 20 32 11
8 20 21 20 30 0 9 9 22 20 30 11 8 20 22 20 32 0 10 5 18 10 18 6 0 10 9 10
20 0 11 -4 20 -10 20 -5 0 -10 5 -10 10 0 18 9 11 65 -45z m-225 -151 c0 -3
-7 -12 -15 -21 -20 -19 -32 -10 -14 11 14 15 29 21 29 10z m-60 -39 c0 -11
-70 -75 -81 -75 -6 0 -20 -10 -30 -22 -11 -11 -22 -19 -25 -15 -8 8 42 57 58
57 7 0 24 14 38 30 23 27 40 38 40 25z m1140 -885 c0 -5 9 -10 20 -10 11 0 20
-4 20 -10 0 -5 7 -10 15 -10 15 0 65 -42 65 -55 0 -3 -9 -5 -20 -5 -13 0 -20
-7 -20 -18 0 -10 9 -24 20 -32 11 -8 20 -22 20 -31 0 -10 6 -20 13 -23 10 -5
10 -7 0 -12 -7 -3 -13 -14 -13 -25 0 -10 -4 -19 -10 -19 -5 0 -10 -9 -10 -20
0 -13 7 -20 20 -20 13 0 20 -7 20 -20 0 -11 5 -20 10 -20 6 0 10 -9 10 -20 0
-11 5 -20 10 -20 6 0 10 -22 10 -50 0 -27 -4 -50 -10 -50 -18 0 -11 -55 10
-70 17 -12 20 -26 20 -82 0 -39 -4 -68 -10 -68 -5 0 -10 -9 -10 -19 0 -11 -6
-21 -12 -24 -9 -3 -6 -11 10 -24 31 -28 29 -77 -3 -109 -22 -22 -27 -23 -40
-10 -11 11 -15 39 -15 110 0 57 -4 96 -10 96 -6 0 -10 27 -10 60 0 33 -4 60
-10 60 -6 0 -10 27 -10 60 0 33 -4 60 -10 60 -5 0 -10 18 -10 40 0 22 -4 40
-10 40 -5 0 -10 23 -10 50 0 28 -4 50 -10 50 -5 0 -10 23 -10 50 0 28 -4 50
-10 50 -5 0 -10 23 -10 50 0 28 -4 50 -10 50 -5 0 -10 14 -10 30 0 17 5 30 10
30 6 0 10 -4 10 -10z"/>
<path d="M2240 5070 c0 -6 -30 -10 -70 -10 -40 0 -70 -4 -70 -10 0 -5 -18 -10
-40 -10 -22 0 -40 -4 -40 -10 0 -5 -13 -10 -30 -10 -16 0 -30 -4 -30 -10 0 -5
-13 -10 -30 -10 -16 0 -30 -4 -30 -10 0 -5 -13 -10 -30 -10 -16 0 -30 -4 -30
-10 0 -5 -9 -10 -20 -10 -11 0 -20 -4 -20 -10 0 -5 -13 -10 -30 -10 -16 0 -30
-4 -30 -10 0 -5 -9 -10 -20 -10 -11 0 -20 -4 -20 -10 0 -5 -9 -10 -20 -10 -11
0 -20 -4 -20 -10 0 -5 -18 -10 -40 -10 -22 0 -40 5 -40 10 0 6 -18 10 -40 10
-22 0 -40 5 -40 10 0 6 -27 10 -60 10 -33 0 -60 4 -60 10 0 6 -30 10 -70 10
-40 0 -70 4 -70 10 0 6 -110 10 -310 10 -200 0 -310 -4 -310 -10 0 -5 -21 -10
-46 -10 -38 0 -51 -5 -74 -30 -15 -16 -35 -30 -44 -30 -14 0 -16 -46 -16 -470
0 -307 3 -470 10 -470 6 0 10 -11 10 -25 0 -27 -98 -135 -123 -135 -7 0 -19
-9 -27 -20 -8 -11 -20 -20 -28 -20 -7 0 -44 -31 -82 -70 -38 -38 -76 -70 -85
-70 -8 0 -15 -9 -15 -20 0 -11 -4 -20 -10 -20 -5 0 -10 -4 -10 -10 0 -24 35
-6 80 40 53 54 60 58 60 35 0 -18 -44 -65 -61 -65 -6 0 -24 -13 -39 -30 -32
-34 -40 -37 -40 -14 0 20 -24 44 -44 44 -9 0 -16 5 -16 10 0 6 -4 10 -10 10
-15 0 -12 -97 3 -104 9 -5 9 -7 0 -12 -7 -3 -13 -19 -13 -35 0 -22 5 -29 20
-29 11 0 20 5 20 10 0 6 9 10 20 10 12 0 20 7 20 16 0 20 24 44 44 44 9 0 16
5 16 10 0 6 9 10 20 10 11 0 20 5 20 10 0 6 9 10 20 10 11 0 20 5 20 10 0 6 9
10 20 10 11 0 20 5 20 10 0 6 7 10 16 10 20 0 49 29 39 38 -4 4 -10 1 -12 -5
-3 -7 -13 -13 -23 -13 -10 0 -20 -6 -23 -12 -2 -7 -8 -10 -12 -6 -8 8 79 98
96 98 6 0 24 14 39 30 15 17 34 30 42 30 7 0 20 9 28 20 8 11 21 20 30 20 9 0
22 9 30 20 8 11 21 20 30 20 9 0 22 9 30 20 8 11 21 20 30 20 9 0 22 9 30 20
8 11 22 20 32 20 10 0 18 5 18 10 0 6 9 10 20 10 11 0 20 5 20 10 0 6 8 10 18
10 10 0 24 9 32 20 8 11 22 20 32 20 10 0 18 5 18 10 0 6 9 10 20 10 11 0 20
5 20 10 0 6 8 10 18 10 10 0 24 9 32 20 8 11 22 20 32 20 10 0 18 5 18 10 0 6
-9 10 -20 10 -11 0 -20 -4 -20 -10 0 -5 -9 -10 -20 -10 -11 0 -20 -4 -20 -10
0 -5 -9 -10 -20 -10 -26 0 -26 12 0 30 11 8 20 20 20 27 0 16 445 463 460 463
6 0 38 27 70 60 32 33 64 60 70 60 7 0 25 14 40 30 15 17 33 30 39 30 18 0
107 93 93 98 -7 2 -12 10 -12 19 0 27 28 43 74 43 25 0 46 5 46 10 0 6 14 10
30 10 17 0 30 5 30 10 0 6 9 10 20 10 11 0 20 5 20 10 0 6 14 10 30 10 17 0
30 5 30 10 0 6 18 10 40 10 22 0 40 5 40 10 0 6 23 10 50 10 28 0 50 5 50 10
0 6 67 10 180 10 113 0 180 -4 180 -10 0 -5 14 -10 30 -10 17 0 30 -4 30 -10
0 -5 9 -10 20 -10 11 0 20 -4 20 -10 0 -5 9 -10 20 -10 11 0 20 -4 20 -10 0
-5 9 -10 20 -10 11 0 20 -4 20 -10 0 -5 14 -10 30 -10 17 0 30 -4 30 -10 0 -5
7 -10 15 -10 19 0 85 -64 85 -82 0 -8 9 -20 20 -28 11 -8 20 -20 20 -28 0 -18
49 -66 58 -57 4 4 1 10 -5 12 -7 3 -13 12 -13 22 0 9 -9 23 -20 31 -11 8 -20
22 -20 32 0 10 -4 18 -10 18 -5 0 -10 7 -10 15 0 19 -44 65 -62 65 -8 0 -20 9
-28 20 -8 11 -22 20 -32 20 -10 0 -18 5 -18 10 0 6 -13 10 -30 10 -16 0 -30 5
-30 10 0 6 -9 10 -20 10 -11 0 -20 5 -20 10 0 6 -9 10 -20 10 -11 0 -20 5 -20
10 0 6 -13 10 -30 10 -16 0 -30 5 -30 10 0 6 -25 10 -56 10 -38 0 -61 5 -72
17 -12 12 -13 18 -4 21 23 7 12 22 -18 22 -16 0 -30 -4 -30 -10 0 -5 -9 -10
-20 -10 -11 0 -20 5 -20 10 0 6 -4 10 -10 10 -5 0 -10 -4 -10 -10z m-754 -205
c14 -13 14 -17 -1 -31 -9 -9 -19 -13 -23 -10 -3 4 0 11 8 16 8 5 11 12 7 16
-4 4 -15 -3 -26 -14 -10 -12 -24 -22 -30 -22 -7 0 -34 -22 -61 -50 -27 -27
-54 -50 -60 -50 -6 0 -46 -36 -90 -80 -44 -44 -84 -80 -90 -80 -6 0 -38 -27
-70 -60 -32 -33 -64 -60 -70 -60 -6 0 -78 -68 -160 -150 -133 -133 -152 -149
-165 -136 -8 8 -15 22 -15 30 0 9 -4 16 -10 16 -20 0 -10 51 15 75 18 19 35
25 70 25 43 0 45 1 45 29 0 16 -6 32 -12 35 -10 5 -10 7 0 12 6 3 12 17 12 30
0 15 14 39 35 59 31 32 40 35 90 35 54 0 55 0 55 30 0 17 5 30 10 30 6 0 10 9
10 20 0 11 5 20 10 20 6 0 10 7 10 15 0 25 46 65 75 65 14 0 25 5 25 10 0 15
58 12 62 -2 5 -15 38 13 38 32 0 22 89 100 115 100 14 0 25 5 25 10 0 6 9 10
20 10 13 0 20 7 20 20 0 18 7 20 56 20 36 0 61 -5 70 -15z m-926 -1015 c0 -5
-4 -10 -10 -10 -5 0 -10 5 -10 10 0 6 5 10 10 10 6 0 10 -4 10 -10z m-60 -26
c0 -20 -24 -44 -43 -44 -9 0 -17 -6 -20 -12 -2 -7 -8 -10 -12 -6 -7 7 53 76
68 77 4 1 7 -6 7 -15z"/>
<path d="M2100 4830 c0 -6 53 -10 140 -10 87 0 140 -4 140 -10 0 -6 27 -10 60
-10 33 0 60 -4 60 -10 0 -5 18 -10 40 -10 22 0 40 -4 40 -10 0 -5 18 -10 40
-10 22 0 40 -4 40 -10 0 -5 13 -10 29 -10 16 0 31 -6 34 -12 2 -7 8 -10 12 -6
12 12 -22 38 -49 38 -14 0 -26 5 -26 10 0 6 -18 10 -40 10 -22 0 -40 5 -40 10
0 6 -18 10 -40 10 -22 0 -40 5 -40 10 0 6 -22 10 -50 10 -27 0 -50 5 -50 10 0
6 -57 10 -150 10 -93 0 -150 -4 -150 -10z"/>
<path d="M1980 4810 c0 -5 23 -10 50 -10 28 0 50 5 50 10 0 6 -22 10 -50 10
-27 0 -50 -4 -50 -10z"/>
<path d="M1940 4790 c0 -5 5 -10 10 -10 6 0 10 5 10 10 0 6 -4 10 -10 10 -5 0
-10 -4 -10 -10z"/>
<path d="M1980 4670 c0 -6 30 -10 70 -10 40 0 70 4 70 10 0 6 -30 10 -70 10
-40 0 -70 -4 -70 -10z"/>
<path d="M2160 4670 c0 -5 23 -10 50 -10 28 0 50 5 50 10 0 6 -22 10 -50 10
-27 0 -50 -4 -50 -10z"/>
<path d="M2280 4670 c0 -5 5 -10 10 -10 6 0 10 5 10 10 0 6 -4 10 -10 10 -5 0
-10 -4 -10 -10z"/>
<path d="M1900 4650 c0 -5 9 -10 20 -10 11 0 20 5 20 10 0 6 -9 10 -20 10 -11
0 -20 -4 -20 -10z"/>
<path d="M2380 4650 c0 -5 14 -10 30 -10 17 0 30 5 30 10 0 6 -13 10 -30 10
-16 0 -30 -4 -30 -10z"/>
<path d="M1800 4630 c0 -5 9 -10 20 -10 11 0 20 5 20 10 0 6 -9 10 -20 10 -11
0 -20 -4 -20 -10z"/>
<path d="M2520 4630 c0 -5 14 -10 30 -10 17 0 30 5 30 10 0 6 -13 10 -30 10
-16 0 -30 -4 -30 -10z"/>
<path d="M1740 4610 c0 -5 9 -10 20 -10 11 0 20 5 20 10 0 6 -9 10 -20 10 -11
0 -20 -4 -20 -10z"/>
<path d="M2640 4610 c0 -5 5 -10 10 -10 6 0 10 5 10 10 0 6 -4 10 -10 10 -5 0
-10 -4 -10 -10z"/>
<path d="M1680 4590 c0 -5 -9 -10 -20 -10 -11 0 -20 -4 -20 -10 0 -5 9 -10 20
-10 11 0 20 5 20 10 0 6 9 10 20 10 11 0 20 5 20 10 0 6 -9 10 -20 10 -11 0
-20 -4 -20 -10z"/>
<path d="M3840 4590 c0 -5 5 -10 10 -10 6 0 10 5 10 10 0 6 -4 10 -10 10 -5 0
-10 -4 -10 -10z"/>
<path d="M3900 4570 c0 -5 9 -10 20 -10 11 0 20 5 20 10 0 6 -9 10 -20 10 -11
0 -20 -4 -20 -10z"/>
<path d="M1560 4530 c0 -5 5 -10 10 -10 6 0 10 5 10 10 0 6 -4 10 -10 10 -5 0
-10 -4 -10 -10z"/>
<path d="M1500 4490 c0 -5 5 -10 10 -10 6 0 10 5 10 10 0 6 -4 10 -10 10 -5 0
-10 -4 -10 -10z"/>
<path d="M1460 4470 c0 -5 5 -10 10 -10 6 0 10 5 10 10 0 6 -4 10 -10 10 -5 0
-10 -4 -10 -10z"/>
<path d="M1420 4450 c0 -5 -7 -10 -16 -10 -20 0 -49 -29 -39 -38 4 -4 10 -1
12 6 3 6 11 12 20 12 14 0 43 23 43 34 0 3 -4 6 -10 6 -5 0 -10 -4 -10 -10z"/>
<path d="M1320 4390 c0 -5 5 -10 10 -10 6 0 10 5 10 10 0 6 -4 10 -10 10 -5 0
-10 -4 -10 -10z"/>
<path d="M3320 4334 c0 -3 14 -19 30 -34 17 -15 30 -33 30 -40 0 -6 23 -33 50
-60 28 -27 50 -56 50 -64 0 -9 5 -16 10 -16 6 0 10 -9 10 -20 0 -11 5 -20 10
-20 6 0 10 -9 10 -20 0 -11 5 -20 10 -20 6 0 10 -9 10 -20 0 -11 5 -20 10 -20
6 0 10 -13 10 -30 0 -16 5 -30 10 -30 6 0 10 -18 10 -40 0 -22 5 -40 10 -40 6
0 10 -18 10 -40 0 -22 5 -40 10 -40 6 0 10 23 10 50 0 28 -4 50 -10 50 -5 0
-10 23 -10 50 0 28 -4 50 -10 50 -5 0 -10 14 -10 30 0 17 -4 30 -10 30 -5 0
-10 9 -10 20 0 11 -4 20 -10 20 -5 0 -10 8 -10 18 0 10 -9 24 -20 32 -11 8
-20 20 -20 27 0 12 -163 183 -175 183 -3 0 -5 -3 -5 -6z"/>
<path d="M3920 4310 c0 -5 7 -10 15 -10 17 0 225 -204 225 -221 0 -6 18 -28
40 -49 22 -21 40 -45 40 -52 0 -7 9 -20 20 -28 11 -8 20 -21 20 -30 0 -9 9
-22 20 -30 11 -8 20 -20 20 -28 0 -18 29 -46 38 -37 4 4 1 10 -5 12 -7 3 -13
12 -13 22 0 9 -9 23 -20 31 -11 8 -20 22 -20 32 0 10 -4 18 -10 18 -5 0 -10 8
-10 18 0 10 -9 24 -20 32 -11 8 -20 21 -20 28 0 7 -18 31 -40 52 -22 21 -40
43 -40 49 0 15 -126 141 -141 141 -6 0 -24 14 -39 30 -27 29 -60 40 -60 20z"/>
<path d="M1020 4090 c0 -5 -9 -10 -20 -10 -11 0 -20 -4 -20 -10 0 -15 29 -12
46 4 16 17 18 26 4 26 -5 0 -10 -4 -10 -10z"/>
<path d="M3060 3990 c0 -5 5 -10 10 -10 6 0 10 5 10 10 0 6 -4 10 -10 10 -5 0
-10 -4 -10 -10z"/>
<path d="M3080 3940 c0 -11 5 -20 10 -20 6 0 10 9 10 20 0 11 -4 20 -10 20 -5
0 -10 -9 -10 -20z"/>
<path d="M1320 3910 c0 -5 -8 -10 -18 -10 -10 0 -24 -9 -32 -20 -8 -11 -22
-20 -32 -20 -10 0 -18 -4 -18 -10 0 -5 -13 -10 -30 -10 -16 0 -30 -4 -30 -10
0 -5 -8 -10 -18 -10 -10 0 -24 -9 -32 -20 -8 -11 -20 -20 -27 -20 -19 0 -143
-126 -143 -145 0 -8 -4 -15 -10 -15 -5 0 -10 -9 -10 -20 0 -11 -4 -20 -10 -20
-5 0 -10 -13 -10 -30 0 -16 -4 -30 -10 -30 -5 0 -10 -22 -10 -50 0 -27 -4 -50
-10 -50 -5 0 -10 -9 -10 -20 0 -11 -4 -20 -10 -20 -5 0 -10 -9 -10 -20 0 -11
-4 -20 -10 -20 -5 0 -10 -9 -10 -20 0 -11 -4 -20 -10 -20 -5 0 -10 -13 -10
-30 0 -16 -4 -30 -10 -30 -5 0 -10 -9 -10 -20 0 -11 -4 -20 -10 -20 -5 0 -10
-9 -10 -20 0 -11 -4 -20 -10 -20 -5 0 -10 -9 -10 -20 0 -11 -4 -20 -10 -20 -5
0 -10 -9 -10 -20 0 -11 -4 -20 -10 -20 -5 0 -10 -9 -10 -20 0 -11 -4 -20 -10
-20 -5 0 -10 -13 -10 -30 0 -16 -4 -30 -10 -30 -5 0 -10 -18 -10 -40 0 -22 -4
-40 -10 -40 -5 0 -10 -22 -10 -50 0 -27 -4 -50 -10 -50 -5 0 -10 -9 -10 -20 0
-13 -7 -20 -20 -20 -11 0 -20 -4 -20 -10 0 -5 -7 -10 -16 -10 -9 0 -29 -13
-44 -30 -15 -16 -35 -30 -44 -30 -9 0 -16 -4 -16 -10 0 -5 -16 -10 -35 -10
-32 0 -47 -11 -135 -100 -55 -55 -104 -100 -110 -100 -6 0 -33 -22 -60 -50
-27 -27 -54 -50 -60 -50 -6 0 -22 -11 -35 -25 l-25 -24 0 -933 c0 -922 0 -934
20 -948 11 -8 20 -20 20 -28 0 -18 46 -62 65 -62 8 0 15 -4 15 -10 0 -5 9 -10
20 -10 13 0 20 -7 20 -18 0 -10 9 -24 20 -32 24 -17 27 -50 4 -50 -18 0 -44
-23 -44 -40 0 -6 -18 -29 -40 -50 -22 -21 -40 -45 -40 -52 0 -7 -9 -20 -20
-28 -11 -8 -20 -22 -20 -32 0 -17 19 -18 306 -18 331 0 334 1 334 54 0 14 5
26 10 26 6 0 10 8 10 18 0 10 9 24 20 32 11 8 20 22 20 32 0 10 5 18 10 18 6
0 10 9 10 20 0 11 5 20 10 20 6 0 10 9 10 20 0 11 5 20 10 20 6 0 10 9 10 20
0 11 5 20 10 20 6 0 10 8 10 18 0 10 9 24 20 32 11 8 20 20 20 28 0 13 23 42
34 42 3 0 6 -9 6 -20 0 -11 -4 -20 -10 -20 -6 0 -10 -37 -10 -90 0 -53 -4 -90
-10 -90 -5 0 -10 -9 -10 -20 0 -11 5 -20 10 -20 6 0 10 -17 10 -38 0 -26 -6
-42 -20 -52 -11 -8 -20 -22 -20 -32 0 -10 -4 -18 -10 -18 -5 0 -10 -4 -10 -10
0 -5 9 -10 20 -10 13 0 20 7 20 20 0 13 7 20 20 20 13 0 20 -7 20 -20 0 -13 7
-20 20 -20 13 0 20 7 20 20 0 11 -4 20 -10 20 -5 0 -10 14 -10 30 0 17 -4 30
-10 30 -6 0 -10 37 -10 90 0 53 4 90 10 90 6 0 10 27 10 60 0 33 4 60 10 60 6
0 10 23 10 50 0 28 5 50 10 50 6 0 10 14 10 30 0 17 5 30 10 30 6 0 10 9 10
20 0 11 5 20 10 20 6 0 10 9 10 20 0 11 5 20 10 20 6 0 10 9 10 20 0 11 5 20
10 20 6 0 10 9 10 20 0 11 5 20 10 20 6 0 10 9 10 20 0 11 5 20 10 20 6 0 10
9 10 20 0 11 5 20 10 20 6 0 10 8 10 18 0 10 9 24 20 32 11 8 20 22 20 32 0
11 7 18 20 18 13 0 20 7 20 20 0 35 29 22 90 -40 32 -33 64 -60 70 -60 7 0 25
-13 40 -30 15 -16 33 -30 39 -30 17 0 61 -47 61 -65 0 -8 5 -15 10 -15 6 0 10
-13 10 -30 0 -16 5 -30 10 -30 6 0 10 -9 10 -20 0 -11 -4 -20 -10 -20 -6 0
-10 -30 -10 -70 0 -40 4 -70 10 -70 6 0 10 -18 10 -40 0 -22 5 -40 10 -40 6 0
10 -13 10 -30 0 -16 5 -30 10 -30 6 0 10 -13 10 -30 0 -16 5 -30 10 -30 6 0
10 -13 10 -30 0 -16 5 -30 10 -30 6 0 10 -12 10 -26 0 -29 21 -54 44 -54 9 0
16 -8 16 -20 0 -11 5 -20 10 -20 6 0 10 -9 10 -20 0 -17 7 -20 50 -20 28 0 50
-4 50 -10 0 -5 9 -10 20 -10 16 0 20 7 20 30 0 17 -4 30 -10 30 -5 0 -10 5
-10 10 0 6 8 10 18 10 10 0 24 9 32 20 8 11 21 20 30 20 9 0 22 9 30 20 8 12
26 20 42 20 15 0 28 5 28 10 0 6 9 10 20 10 11 0 20 5 20 10 0 6 9 10 20 10
11 0 20 5 20 10 0 6 9 10 20 10 11 0 20 5 20 10 0 6 9 10 20 10 11 0 20 5 20
10 0 6 9 10 20 10 11 0 20 5 20 10 0 6 8 10 18 10 10 0 24 9 32 20 8 12 26 20
42 20 15 0 28 5 28 10 0 6 7 10 16 10 9 0 26 10 37 23 13 15 21 18 24 10 6
-16 183 -18 183 -3 0 6 50 10 129 10 94 0 131 3 134 13 2 6 8 9 12 5 18 -17
-25 -38 -79 -38 -31 0 -56 -4 -56 -10 0 -5 -18 -10 -40 -10 -22 0 -40 -4 -40
-10 0 -5 -8 -10 -18 -10 -10 0 -24 -9 -32 -20 -8 -11 -21 -20 -30 -20 -9 0
-22 -9 -30 -20 -8 -11 -21 -20 -28 -20 -8 0 -27 -13 -42 -30 -15 -16 -33 -30
-39 -30 -15 0 -121 -106 -121 -120 0 -17 -26 -40 -44 -40 -9 0 -16 -4 -16 -10
0 -7 167 -10 480 -10 264 0 480 3 480 6 0 10 -28 34 -40 34 -17 0 -40 26 -40
44 0 9 8 16 20 16 11 0 20 -4 20 -10 0 -5 9 -10 20 -10 11 0 20 -4 20 -10 0
-5 7 -10 16 -10 9 0 29 -13 44 -30 28 -30 29 -30 133 -30 75 0 107 4 111 13 5
9 7 9 12 0 4 -10 49 -13 174 -13 125 0 170 3 174 13 5 9 7 9 12 0 7 -17 61
-17 68 0 5 9 7 9 12 0 10 -21 53 -15 80 12 22 22 23 27 10 40 -21 22 -26 19
-26 -15 0 -16 -2 -30 -5 -30 -3 0 -37 31 -75 70 -38 38 -76 70 -85 70 -8 0
-15 5 -15 10 0 6 -16 10 -36 10 -27 0 -43 7 -64 30 -35 37 -40 37 -40 0 0 -16
-2 -30 -5 -30 -3 0 -37 32 -75 70 -38 39 -72 70 -75 70 -3 0 -5 -9 -5 -20 0
-12 -7 -20 -16 -20 -20 0 -44 24 -44 44 0 12 -11 16 -49 16 -30 0 -52 -5 -55
-12 -5 -10 -7 -10 -12 0 -3 6 -12 12 -21 12 -17 0 -43 24 -43 40 0 17 -26 40
-44 40 -9 0 -16 5 -16 10 0 6 -4 10 -10 10 -5 0 -10 -9 -10 -20 0 -11 5 -20
10 -20 6 0 10 -4 10 -10 0 -5 -13 -10 -30 -10 -16 0 -30 5 -30 10 0 6 -16 10
-36 10 -38 0 -64 18 -64 44 0 9 8 16 20 16 13 0 20 -7 20 -20 0 -16 7 -20 30
-20 17 0 30 -4 30 -10 0 -5 5 -10 10 -10 6 0 10 9 10 20 0 16 -7 20 -30 20
-23 0 -30 4 -30 20 0 13 7 20 20 20 11 0 20 -4 20 -10 0 -5 9 -10 20 -10 26 0
25 8 -2 32 -19 16 -20 21 -8 29 13 8 13 10 0 18 -8 6 -11 13 -7 18 5 4 12 1
18 -7 8 -13 10 -13 19 0 9 13 11 13 21 0 8 -11 12 -12 16 -2 6 14 43 16 43 2
0 -5 9 -10 20 -10 11 0 20 5 20 10 0 6 9 10 20 10 11 0 20 -4 20 -10 0 -5 -7
-10 -16 -10 -15 0 -44 -23 -44 -34 0 -3 9 -6 20 -6 11 0 20 5 20 10 0 6 9 10
20 10 11 0 20 5 20 10 0 6 47 10 120 10 113 0 120 1 120 20 0 13 7 20 20 20
11 0 20 5 20 10 0 6 14 10 30 10 17 0 30 5 30 10 0 6 14 10 30 10 17 0 30 5
30 10 0 6 9 10 20 10 11 0 20 5 20 10 0 6 8 10 18 10 10 0 24 9 32 20 8 11 22
20 32 20 10 0 18 5 18 10 0 6 8 10 18 10 10 0 24 9 32 20 8 11 21 20 30 20 9
0 22 9 30 20 8 11 22 20 32 20 10 0 18 5 18 10 0 6 8 10 18 10 10 0 24 9 32
20 8 11 21 20 30 20 9 0 22 9 30 20 8 11 21 20 30 20 9 0 22 9 30 20 8 11 20
20 28 20 7 0 35 23 62 50 27 28 54 50 60 50 16 0 100 87 100 105 0 21 -13 19
-30 -5 -8 -11 -21 -20 -28 -20 -8 0 -27 -13 -42 -30 -15 -16 -33 -30 -40 -30
-6 0 -29 -18 -50 -40 -21 -22 -44 -40 -50 -40 -6 0 -29 -18 -50 -40 -21 -22
-45 -40 -52 -40 -7 0 -20 -9 -28 -20 -8 -11 -22 -20 -31 -20 -10 0 -19 -6 -22
-12 -2 -8 -8 -9 -13 -4 -5 5 -4 11 4 13 6 3 12 12 12 22 0 9 9 23 20 31 11 8
20 21 20 28 0 8 14 27 30 42 17 15 30 35 30 44 0 9 5 16 10 16 6 0 10 8 10 18
0 10 9 24 20 32 11 8 20 21 20 30 0 9 9 22 20 30 11 8 20 22 20 32 0 10 5 18
10 18 6 0 10 14 10 30 0 17 5 30 10 30 6 0 10 9 10 20 0 11 5 20 10 20 6 0 10
9 10 20 0 11 5 20 10 20 6 0 10 9 10 20 0 11 5 20 10 20 6 0 10 9 10 20 0 11
5 20 10 20 6 0 10 14 10 30 0 17 5 30 10 30 6 0 10 14 10 30 0 17 -2 30 -5 30
-3 0 -37 -31 -75 -70 -38 -39 -72 -70 -75 -70 -14 0 -3 37 15 50 11 8 20 21
20 30 0 9 9 22 20 30 11 8 20 22 20 32 0 10 5 18 10 18 6 0 10 14 10 30 0 17
5 30 10 30 6 0 10 14 10 30 0 17 5 30 10 30 6 0 10 9 10 20 0 11 5 20 10 20 6
0 10 18 10 40 0 22 5 40 10 40 6 0 10 14 10 30 0 17 5 30 10 30 6 0 10 18 10
40 0 22 -4 40 -10 40 -5 0 -10 -9 -10 -20 0 -11 -4 -20 -10 -20 -5 0 -10 -18
-10 -40 0 -22 -4 -40 -10 -40 -5 0 -10 -13 -10 -30 0 -16 -4 -30 -10 -30 -5 0
-10 -13 -10 -30 0 -16 -4 -30 -10 -30 -5 0 -10 -9 -10 -20 0 -11 -4 -20 -10
-20 -5 0 -10 -13 -10 -30 0 -16 -4 -30 -10 -30 -5 0 -10 -9 -10 -20 0 -11 -4
-20 -10 -20 -5 0 -10 -9 -10 -20 0 -11 -4 -20 -10 -20 -5 0 -10 -7 -10 -16 0
-9 -13 -29 -30 -44 -16 -15 -30 -33 -30 -39 0 -15 -186 -201 -201 -201 -6 0
-24 -13 -39 -30 -15 -16 -35 -30 -44 -30 -9 0 -16 -4 -16 -10 0 -5 -8 -10 -18
-10 -10 0 -24 -9 -32 -20 -8 -12 -26 -20 -42 -20 -15 0 -28 -4 -28 -10 0 -5
-9 -10 -20 -10 -11 0 -20 -4 -20 -10 0 -5 -9 -10 -20 -10 -11 0 -20 -4 -20
-10 0 -15 -97 -13 -103 3 -2 7 -8 8 -13 3 -5 -5 -4 -11 4 -13 26 -10 10 -23
-28 -23 -22 0 -40 -4 -40 -10 0 -5 -13 -10 -30 -10 -16 0 -30 -4 -30 -10 0 -5
-9 -10 -20 -10 -11 0 -20 5 -20 10 0 6 9 10 20 10 11 0 20 5 20 10 0 6 7 10
15 10 17 0 265 244 265 261 0 6 13 24 30 39 17 15 30 35 30 44 0 9 5 16 10 16
6 0 10 9 10 20 0 11 5 20 10 20 6 0 10 7 10 16 0 26 26 44 64 44 26 0 36 4 36
15 0 25 -46 65 -75 65 -18 0 -25 5 -25 20 0 11 5 20 10 20 6 0 10 12 10 26 0
23 20 54 34 54 3 0 6 -9 6 -20 0 -11 -4 -20 -10 -20 -5 0 -10 -13 -10 -30 0
-16 5 -30 10 -30 6 0 10 9 10 20 0 11 5 20 10 20 6 0 10 9 10 20 0 11 5 20 10
20 6 0 10 9 10 20 0 11 5 20 10 20 6 0 10 9 10 20 0 11 5 20 10 20 6 0 10 9
10 20 0 11 5 20 10 20 6 0 10 9 10 20 0 11 5 20 10 20 6 0 10 14 10 30 0 17 5
30 10 30 6 0 10 18 10 40 0 22 5 40 10 40 6 0 10 18 10 40 0 22 5 40 10 40 6
0 10 14 10 30 0 17 5 30 10 30 6 0 10 9 10 20 0 11 5 20 10 20 6 0 10 14 10
30 0 17 5 30 10 30 6 0 10 14 10 30 0 17 5 30 10 30 6 0 10 9 10 20 0 11 5 20
10 20 6 0 10 18 10 40 0 22 5 40 10 40 6 0 10 13 10 28 0 16 8 34 20 42 11 8
20 22 20 32 0 10 5 18 10 18 6 0 10 9 10 20 0 11 5 20 10 20 6 0 10 9 10 20 0
11 5 20 10 20 6 0 10 18 10 40 0 22 5 40 10 40 6 0 10 18 10 40 0 22 5 40 10
40 6 0 10 27 10 60 0 33 4 60 10 60 6 0 10 40 10 100 0 60 -4 100 -10 100 -5
0 -10 -9 -10 -20 0 -11 -4 -20 -10 -20 -6 0 -10 -40 -10 -100 0 -60 -4 -100
-10 -100 -5 0 -10 -22 -10 -50 0 -27 -4 -50 -10 -50 -5 0 -10 -18 -10 -40 0
-22 -4 -40 -10 -40 -5 0 -10 -13 -10 -30 0 -16 -4 -30 -10 -30 -5 0 -10 -9
-10 -20 0 -11 -4 -20 -10 -20 -5 0 -10 -9 -10 -20 0 -11 -4 -20 -10 -20 -5 0
-10 -8 -10 -18 0 -10 -9 -24 -20 -32 -11 -8 -20 -22 -20 -32 0 -10 -4 -18 -10
-18 -5 0 -10 -7 -10 -16 0 -20 -24 -44 -44 -44 -9 0 -16 -4 -16 -10 0 -5 -8
-10 -18 -10 -10 0 -24 -9 -32 -20 -8 -11 -22 -20 -32 -20 -10 0 -18 -4 -18
-10 0 -5 -9 -10 -20 -10 -11 0 -20 -4 -20 -10 0 -5 -8 -10 -18 -10 -10 0 -24
-9 -32 -20 -8 -11 -22 -20 -32 -20 -10 0 -18 -4 -18 -10 0 -5 -9 -10 -20 -10
-11 0 -20 -4 -20 -10 0 -5 -4 -10 -10 -10 -5 0 -10 14 -10 30 0 17 5 30 10 30
6 0 10 18 10 40 0 22 5 40 10 40 6 0 10 67 10 180 0 113 -4 180 -10 180 -6 0
-10 27 -10 60 0 33 -4 60 -10 60 -6 0 -10 33 -10 80 0 47 -4 80 -10 80 -5 0
-10 -18 -10 -40 0 -22 -4 -40 -10 -40 -5 0 -10 -18 -10 -40 0 -22 -4 -40 -10
-40 -5 0 -10 -13 -10 -30 0 -16 -4 -30 -10 -30 -5 0 -10 -9 -10 -20 0 -11 -4
-20 -10 -20 -5 0 -10 -9 -10 -20 0 -11 -4 -20 -10 -20 -5 0 -10 -9 -10 -20 0
-11 -4 -20 -10 -20 -5 0 -10 -9 -10 -20 0 -11 -4 -20 -10 -20 -5 0 -10 9 -10
20 0 11 5 20 10 20 6 0 10 67 10 180 0 113 -4 180 -10 180 -6 0 -10 33 -10 80
0 47 4 80 10 80 6 0 10 30 10 70 0 40 4 70 10 70 6 0 10 67 10 180 0 113 -4
180 -10 180 -5 0 -10 9 -10 20 0 11 -4 20 -10 20 -5 0 -10 -18 -10 -40 0 -22
-4 -40 -10 -40 -5 0 -10 -18 -10 -40 0 -22 -4 -40 -10 -40 -5 0 -10 -13 -10
-30 0 -16 -4 -30 -10 -30 -5 0 -10 -13 -10 -30 0 -16 -4 -30 -10 -30 -5 0 -10
-13 -10 -30 0 -16 -4 -30 -10 -30 -5 0 -10 -9 -10 -20 0 -11 -4 -20 -10 -20
-5 0 -10 -8 -10 -18 0 -10 -9 -24 -20 -32 -11 -8 -20 -22 -20 -32 0 -10 -4
-18 -10 -18 -5 0 -10 -8 -10 -18 0 -10 -9 -24 -20 -32 -11 -8 -20 -21 -20 -30
0 -9 -9 -22 -20 -30 -11 -8 -20 -21 -20 -28 0 -7 -18 -31 -40 -52 -22 -21 -40
-43 -40 -49 0 -15 -126 -141 -141 -141 -6 0 -24 -13 -39 -30 -15 -16 -35 -30
-44 -30 -9 0 -16 -4 -16 -10 0 -5 -8 -10 -18 -10 -10 0 -24 -9 -32 -20 -8 -11
-22 -20 -32 -20 -10 0 -18 -4 -18 -10 0 -5 -9 -10 -20 -10 -11 0 -20 -4 -20
-10 0 -5 -9 -10 -20 -10 -11 0 -20 -4 -20 -10 0 -5 -9 -10 -20 -10 -11 0 -20
-4 -20 -10 0 -5 -13 -10 -30 -10 -16 0 -30 -4 -30 -10 0 -5 -13 -10 -30 -10
-16 0 -30 -4 -30 -10 0 -5 -18 -10 -40 -10 -33 0 -40 3 -40 20 0 11 5 20 10
20 6 0 10 14 10 30 0 17 5 30 10 30 6 0 10 14 10 30 0 17 5 30 10 30 6 0 10
14 10 30 0 17 5 30 10 30 6 0 10 23 10 50 0 28 5 50 10 50 6 0 10 60 10 160 0
100 4 160 10 160 6 0 10 9 10 20 0 11 5 20 10 20 6 0 10 14 10 30 0 17 -4 30
-10 30 -5 0 -10 -8 -10 -18 0 -10 -9 -24 -20 -32 -11 -8 -20 -20 -20 -27 0
-16 -225 -243 -241 -243 -6 0 -24 -13 -39 -30 -15 -16 -33 -30 -40 -30 -7 0
-25 -13 -40 -30 -17 -18 -38 -30 -54 -30 -14 0 -26 -4 -26 -10 0 -5 -13 -10
-30 -10 -16 0 -30 3 -30 6 0 3 14 19 30 34 17 15 30 34 30 42 0 7 9 20 20 28
11 8 20 22 20 32 0 10 5 18 10 18 6 0 10 9 10 20 0 11 5 20 10 20 6 0 10 9 10
20 0 11 5 20 10 20 6 0 10 14 10 30 0 17 5 30 10 30 6 0 10 9 10 20 0 11 5 20
10 20 6 0 10 13 10 28 0 16 8 34 20 42 12 8 20 26 20 42 0 15 5 28 10 28 6 0
10 9 10 20 0 11 5 20 10 20 6 0 10 23 10 50 0 28 5 50 10 50 6 0 10 9 10 19 0
11 6 21 12 24 7 2 10 8 6 12 -4 4 -65 -52 -137 -124 -72 -72 -136 -131 -142
-131 -6 0 -24 -13 -39 -30 -17 -18 -38 -30 -54 -30 -19 0 -26 -5 -26 -20 0
-13 -7 -20 -20 -20 -11 0 -20 -4 -20 -10 0 -5 -13 -10 -30 -10 -16 0 -30 -4
-30 -10 0 -5 -13 -10 -30 -10 -16 0 -30 -4 -30 -10 0 -5 -22 -10 -50 -10 -27
0 -50 -4 -50 -10 0 -6 -43 -10 -110 -10 -67 0 -110 -4 -110 -10 0 -5 -13 -10
-30 -10 -16 0 -30 5 -30 10 0 6 -43 10 -110 10 -67 0 -110 4 -110 10 0 6 9 10
20 10 11 0 20 5 20 10 0 6 8 10 18 10 10 0 24 9 32 20 8 11 21 20 28 20 7 0
31 18 52 40 21 22 43 40 49 40 16 0 241 227 241 243 0 7 9 19 20 27 11 8 20
21 20 30 0 9 9 22 20 30 11 8 20 22 20 32 0 10 5 18 10 18 6 0 10 12 10 26 0
15 10 35 22 45 11 11 19 22 15 25 -9 9 -57 -42 -57 -61 0 -8 -4 -15 -10 -15
-5 0 -10 -7 -10 -16 0 -9 -13 -29 -30 -44 -16 -15 -30 -33 -30 -39 0 -17 -67
-81 -85 -81 -8 0 -15 -4 -15 -10 0 -5 -9 -10 -20 -10 -11 0 -20 -4 -20 -10 0
-5 -13 -10 -30 -10 -16 0 -30 -4 -30 -10 0 -5 -9 -10 -20 -10 -11 0 -20 -4
-20 -10 0 -5 -9 -10 -20 -10 -11 0 -20 -4 -20 -10 0 -5 -9 -10 -20 -10 -11 0
-20 -4 -20 -10 0 -5 -9 -10 -20 -10 -11 0 -20 -4 -20 -10 0 -5 -9 -10 -20 -10
-11 0 -20 -4 -20 -10 0 -5 -13 -10 -30 -10 -16 0 -30 -4 -30 -10 0 -5 -9 -10
-20 -10 -11 0 -20 -4 -20 -10 0 -5 -8 -10 -18 -10 -10 0 -24 -9 -32 -20 -8
-11 -22 -20 -32 -20 -10 0 -18 -4 -18 -10 0 -5 -9 -10 -20 -10 -11 0 -20 -4
-20 -10 0 -5 -9 -10 -20 -10 -11 0 -20 -4 -20 -10 0 -5 -9 -10 -20 -10 -11 0
-20 -7 -20 -15 0 -9 -31 -47 -70 -85 -38 -38 -70 -76 -70 -85 0 -8 -4 -15 -10
-15 -5 0 -10 -9 -10 -20 0 -13 -7 -20 -20 -20 -11 0 -20 5 -20 10 0 6 -7 10
-16 10 -20 0 -44 24 -44 44 0 9 -4 16 -10 16 -5 0 -10 14 -10 30 0 17 -4 30
-10 30 -5 0 -10 23 -10 50 0 28 5 50 10 50 6 0 10 18 10 40 0 22 5 40 10 40 6
0 10 14 10 30 0 17 5 30 10 30 6 0 10 9 10 20 0 11 5 20 10 20 6 0 10 9 10 20
0 11 5 20 10 20 6 0 10 8 10 18 0 10 9 24 20 32 11 8 20 21 20 30 0 9 9 22 20
30 11 8 20 21 20 30 0 9 9 22 20 30 11 8 20 25 20 37 0 16 30 53 95 118 52 52
100 95 106 95 14 0 39 26 39 40 0 15 25 40 40 40 12 0 40 24 40 34 0 3 -4 6
-10 6 -5 0 -10 -4 -10 -10z m340 -535 c0 -11 -90 -95 -101 -95 -6 0 -28 -18
-49 -40 -21 -22 -45 -40 -52 -40 -7 0 -20 -9 -28 -20 -8 -11 -21 -20 -30 -20
-9 0 -22 -9 -30 -20 -8 -12 -26 -20 -42 -20 -15 0 -28 -4 -28 -10 0 -14 -38
-12 -43 3 -2 6 -8 9 -12 5 -16 -15 25 -38 69 -38 25 0 46 -4 46 -10 0 -5 23
-10 50 -10 28 0 50 -4 50 -10 0 -5 23 -10 50 -10 28 0 50 -4 50 -10 0 -6 37
-10 90 -10 53 0 90 4 90 10 0 6 30 10 70 10 40 0 70 4 70 10 0 6 14 10 30 10
17 0 30 5 30 10 0 6 14 10 30 10 17 0 30 5 30 10 0 6 18 10 39 10 22 0 42 6
45 13 5 10 7 10 12 0 3 -7 23 -13 44 -13 22 0 40 -5 42 -12 3 -9 9 -8 21 4 19
18 23 48 7 48 -5 0 -10 7 -10 15 0 18 104 125 121 125 6 0 28 18 49 40 44 45
50 48 50 20 0 -11 -4 -20 -10 -20 -5 0 -10 -13 -10 -30 0 -16 -4 -30 -10 -30
-5 0 -10 -9 -10 -20 0 -11 -4 -20 -10 -20 -5 0 -10 -9 -10 -20 0 -11 -4 -20
-10 -20 -5 0 -10 -13 -10 -30 0 -16 -4 -30 -10 -30 -5 0 -10 -9 -10 -20 0 -11
-4 -20 -10 -20 -5 0 -10 -9 -10 -20 0 -11 -4 -20 -10 -20 -5 0 -10 -9 -10 -20
0 -11 -4 -20 -10 -20 -5 0 -10 -7 -10 -16 0 -9 -13 -29 -30 -44 -16 -15 -30
-33 -30 -40 0 -6 -22 -33 -50 -60 -27 -27 -50 -51 -50 -54 0 -3 14 -6 30 -6
17 0 30 5 30 10 0 6 14 10 30 10 17 0 30 5 30 10 0 6 14 10 30 10 17 0 30 5
30 10 0 6 14 10 30 10 17 0 30 5 30 10 0 6 9 10 20 10 11 0 20 5 20 10 0 6 7
10 16 10 9 0 29 14 44 30 15 17 33 30 40 30 7 0 25 14 40 30 15 17 33 30 39
30 17 0 61 47 61 65 0 8 9 15 20 15 12 0 20 7 20 16 0 15 23 44 34 44 3 0 6
-40 6 -90 0 -53 -4 -90 -10 -90 -6 0 -10 -27 -10 -60 0 -33 -4 -60 -10 -60 -5
0 -10 -18 -10 -40 0 -22 -4 -40 -10 -40 -5 0 -10 -13 -10 -30 0 -16 -4 -30
-10 -30 -5 0 -10 -13 -10 -30 0 -16 -4 -30 -10 -30 -5 0 -10 -13 -10 -30 0
-16 -4 -30 -10 -30 -5 0 -10 -9 -10 -20 0 -13 -7 -20 -20 -20 -11 0 -20 -4
-20 -10 0 -5 14 -10 30 -10 17 0 30 5 30 10 0 6 27 10 60 10 33 0 60 4 60 10
0 6 18 10 40 10 22 0 40 5 40 10 0 6 9 10 20 10 11 0 20 5 20 10 0 6 14 10 30
10 17 0 30 5 30 10 0 6 9 10 20 10 11 0 20 5 20 10 0 6 9 10 20 10 11 0 20 5
20 10 0 6 8 10 18 10 10 0 24 9 32 20 8 11 22 20 32 20 10 0 18 5 18 10 0 6 7
10 16 10 8 0 33 18 54 40 21 22 44 40 51 40 6 0 20 10 31 22 16 19 21 20 29 8
8 -11 12 -12 16 -2 6 15 123 17 123 2 0 -5 14 -10 30 -10 17 0 30 -4 30 -10 0
-5 8 -10 18 -10 10 0 24 -9 32 -20 17 -24 50 -27 50 -5 0 20 -105 125 -125
125 -8 0 -15 5 -15 10 0 6 -9 10 -20 10 -11 0 -20 5 -20 10 0 6 -9 10 -20 10
-27 0 -25 7 10 40 16 15 30 35 30 44 0 9 5 16 10 16 6 0 10 8 10 18 0 10 9 24
20 32 11 8 20 21 20 30 0 9 9 22 20 30 11 8 20 22 20 32 0 10 5 18 10 18 6 0
10 9 10 20 0 11 5 20 10 20 6 0 10 9 10 20 0 11 5 20 10 20 6 0 10 -27 10 -60
0 -33 4 -60 10 -60 6 0 10 -43 10 -110 0 -67 4 -110 10 -110 6 0 10 -77 10
-210 0 -133 -4 -210 -10 -210 -5 0 -10 -18 -10 -40 0 -22 3 -40 6 -40 11 0 34
29 34 42 0 8 9 20 20 28 11 8 20 22 20 32 0 10 5 18 10 18 6 0 10 9 10 20 0
11 5 20 10 20 6 0 10 9 10 20 0 11 5 20 10 20 6 0 10 9 10 20 0 11 5 20 10 20
6 0 10 9 10 20 0 11 5 20 10 20 6 0 10 -18 10 -40 0 -22 5 -40 10 -40 6 0 10
-22 10 -50 0 -27 5 -50 10 -50 6 0 10 -18 10 -40 0 -22 -4 -40 -10 -40 -6 0
-10 -37 -10 -90 0 -53 -4 -90 -10 -90 -5 0 -10 -22 -10 -50 0 -43 -3 -50 -20
-50 -13 0 -20 7 -20 20 0 12 -7 20 -16 20 -9 0 -29 14 -44 30 -15 17 -35 30
-44 30 -9 0 -16 5 -16 10 0 6 -9 10 -20 10 -11 0 -20 5 -20 10 0 6 -9 10 -20
10 -11 0 -20 5 -20 10 0 6 -9 10 -20 10 -11 0 -20 5 -20 10 0 6 -18 10 -40 10
-22 0 -40 5 -40 10 0 6 -30 10 -70 10 -40 0 -70 -4 -70 -10 0 -16 -129 -12
-146 4 -21 21 -18 26 16 26 17 0 30 5 30 10 0 6 14 10 30 10 17 0 30 5 30 10
0 6 18 10 40 10 22 0 40 5 40 10 0 6 -33 10 -80 10 -47 0 -80 -4 -80 -10 0 -5
-18 -10 -40 -10 -22 0 -40 -4 -40 -10 0 -5 -13 -10 -30 -10 -16 0 -30 -4 -30
-10 0 -5 -9 -10 -20 -10 -13 0 -20 -7 -20 -20 0 -16 7 -20 30 -20 17 0 30 5
30 10 0 6 12 10 26 10 26 0 54 -20 54 -40 0 -16 -67 -80 -85 -80 -8 0 -15 -7
-15 -16 0 -9 -13 -29 -30 -44 -16 -15 -30 -35 -30 -44 0 -9 -4 -16 -10 -16 -5
0 -10 -18 -10 -40 0 -22 -4 -40 -10 -40 -5 0 -10 -13 -10 -30 0 -16 3 -30 6
-30 10 0 34 28 34 39 0 6 29 41 65 76 45 46 72 65 90 65 14 0 25 5 25 10 0 6
14 10 30 10 17 0 30 5 30 10 0 6 47 10 120 10 73 0 120 -4 120 -10 0 -5 9 -10
20 -10 11 0 20 -4 20 -10 0 -5 14 -10 30 -10 17 0 30 -4 30 -10 0 -5 7 -10 15
-10 18 0 125 -104 125 -121 0 -6 14 -24 30 -39 17 -15 30 -35 30 -44 0 -9 5
-16 10 -16 6 0 10 -9 10 -20 0 -11 5 -20 10 -20 6 0 10 -13 10 -30 0 -16 5
-30 10 -30 6 0 10 -33 10 -80 0 -47 -4 -80 -10 -80 -5 0 -10 -22 -10 -50 0
-27 -4 -50 -10 -50 -5 0 -10 -22 -10 -50 0 -27 -4 -50 -10 -50 -5 0 -10 -8
-10 -18 0 -10 -9 -24 -20 -32 -11 -8 -20 -22 -20 -32 0 -10 -4 -18 -10 -18 -5
0 -10 -9 -10 -20 0 -11 -4 -20 -10 -20 -18 0 -11 -32 11 -51 l21 -18 -51 -50
c-28 -27 -51 -55 -51 -61 0 -14 -46 -60 -61 -60 -6 0 -24 -14 -39 -30 -15 -16
-35 -30 -44 -30 -9 0 -16 -4 -16 -10 0 -5 -9 -10 -20 -10 -11 0 -20 -4 -20
-10 0 -5 -9 -10 -20 -10 -11 0 -20 -4 -20 -10 0 -5 -9 -10 -20 -10 -11 0 -20
-4 -20 -10 0 -5 -9 -10 -20 -10 -11 0 -20 -4 -20 -10 0 -5 -18 -10 -40 -10
-22 0 -40 -4 -40 -10 0 -5 -13 -10 -30 -10 -16 0 -30 -4 -30 -10 0 -6 50 -10
130 -10 80 0 130 4 130 10 0 6 27 10 60 10 33 0 60 4 60 10 0 6 14 10 30 10
17 0 30 5 30 10 0 6 14 10 30 10 17 0 30 5 30 10 0 6 9 10 20 10 32 0 24 -28
-20 -70 -22 -21 -40 -43 -40 -49 0 -16 -167 -181 -183 -181 -7 0 -19 -9 -27
-20 -8 -11 -22 -20 -32 -20 -10 0 -18 -4 -18 -10 0 -6 -27 -10 -60 -10 -33 0
-60 -4 -60 -10 0 -5 -18 -10 -40 -10 -22 0 -40 -4 -40 -10 0 -5 -8 -10 -18
-10 -10 0 -24 -9 -32 -20 -8 -11 -21 -20 -28 -20 -8 0 -27 -13 -42 -30 -26
-28 -32 -30 -104 -30 -44 0 -76 -4 -76 -10 0 -6 -30 -10 -70 -10 -40 0 -70 -4
-70 -10 0 -6 -33 -10 -80 -10 -47 0 -80 -4 -80 -10 0 -6 -57 -10 -150 -10 -93
0 -150 4 -150 10 0 6 -18 10 -40 10 -22 0 -40 5 -40 10 0 6 -27 10 -60 10 -33
0 -60 4 -60 10 0 6 -13 10 -30 10 -16 0 -30 5 -30 10 0 6 -13 10 -30 10 -16 0
-30 5 -30 10 0 6 -9 10 -20 10 -11 0 -20 5 -20 10 0 6 -13 10 -30 10 -16 0
-30 5 -30 10 0 6 -9 10 -20 10 -11 0 -20 5 -20 10 0 6 -8 10 -18 10 -10 0 -24
9 -32 20 -8 11 -22 20 -32 20 -10 0 -18 5 -18 10 0 6 -7 10 -16 10 -9 0 -29
14 -44 30 -15 17 -34 30 -42 30 -7 0 -20 9 -28 20 -8 11 -21 20 -28 20 -7 0
-31 18 -52 40 -21 22 -44 40 -50 40 -7 0 -25 14 -40 30 -15 17 -33 30 -39 30
-14 0 -161 146 -161 160 0 6 -36 46 -80 90 -44 44 -80 85 -80 92 0 8 -9 20
-20 28 -11 8 -20 22 -20 32 0 10 -4 18 -10 18 -5 0 -10 9 -10 20 0 11 -4 20
-10 20 -5 0 -10 9 -10 20 0 11 -4 20 -10 20 -5 0 -10 14 -10 30 0 17 -4 30
-10 30 -5 0 -10 14 -10 30 0 17 -4 30 -10 30 -5 0 -10 23 -10 50 0 28 -4 50
-10 50 -6 0 -10 67 -10 180 0 113 -4 180 -10 180 -6 0 -10 43 -10 110 0 67 4
110 10 110 14 0 12 37 -2 44 -10 5 -10 7 0 12 9 4 12 41 12 135 0 79 4 129 10
129 6 0 10 33 10 80 0 47 4 80 10 80 6 0 10 23 10 50 0 28 5 50 10 50 6 0 10
14 10 30 0 23 4 30 20 30 16 0 20 7 20 30 0 17 5 30 10 30 6 0 10 13 10 28 0
16 8 34 20 42 11 8 20 20 20 27 0 19 126 143 145 143 8 0 15 9 15 20 0 13 7
20 20 20 11 0 20 5 20 10 0 6 9 10 20 10 11 0 20 5 20 10 0 6 9 10 20 10 11 0
20 5 20 10 0 6 14 10 30 10 17 0 30 5 30 10 0 6 9 10 20 10 11 0 20 5 20 10 0
6 9 10 20 10 11 0 20 5 20 10 0 6 9 10 20 10 11 0 20 5 20 10 0 6 9 10 20 10
11 0 20 5 20 10 0 6 14 10 30 10 17 0 30 5 30 10 0 6 9 10 20 10 11 0 20 5 20
10 0 6 9 10 20 10 11 0 20 5 20 10 0 6 5 10 10 10 6 0 10 -2 10 -5z m520 -245
c0 -5 -4 -10 -10 -10 -5 0 -10 5 -10 10 0 6 5 10 10 10 6 0 10 -4 10 -10z
m1200 -240 c0 -5 -18 -10 -40 -10 -22 0 -40 5 -40 10 0 6 18 10 40 10 22 0 40
-4 40 -10z m40 -20 c0 -5 -4 -10 -10 -10 -5 0 -10 5 -10 10 0 6 5 10 10 10 6
0 10 -4 10 -10z m-2680 -190 c0 -13 7 -20 20 -20 17 0 20 -7 20 -50 0 -27 5
-50 10 -50 6 0 10 -43 10 -110 0 -67 -4 -110 -10 -110 -6 0 -10 -67 -10 -180
0 -113 -4 -180 -10 -180 -5 0 -10 5 -10 10 0 6 -7 10 -15 10 -18 0 -65 44 -65
61 0 6 -13 24 -30 39 -16 15 -30 33 -30 40 0 12 -24 40 -34 40 -3 0 -6 -9 -6
-20 0 -11 5 -20 10 -20 6 0 10 -9 10 -20 0 -11 5 -20 10 -20 6 0 10 -9 10 -20
0 -11 5 -20 10 -20 6 0 10 -7 10 -15 0 -20 65 -85 85 -85 8 0 15 -4 15 -10 0
-5 9 -10 20 -10 18 0 20 -7 20 -70 0 -73 -6 -83 -30 -50 -8 11 -20 20 -27 20
-17 0 -183 166 -183 183 0 7 -9 19 -20 27 -15 11 -20 26 -20 62 0 41 -3 48
-20 48 -19 0 -20 7 -20 185 l0 186 35 34 c19 19 41 35 50 35 8 0 15 5 15 10 0
23 52 8 85 -25 34 -33 46 -65 25 -65 -5 0 -10 -9 -10 -20 0 -11 5 -20 10 -20
6 0 10 -18 10 -40 0 -22 -4 -40 -10 -40 -6 0 -10 -33 -10 -80 0 -47 4 -80 10
-80 6 0 10 -9 10 -20 0 -11 5 -20 10 -20 6 0 10 -9 10 -20 0 -11 5 -20 10 -20
6 0 10 -7 10 -16 0 -15 23 -44 34 -44 3 0 6 18 6 40 0 22 -4 40 -10 40 -5 0
-10 9 -10 20 0 11 -4 20 -10 20 -5 0 -10 9 -10 20 0 11 -4 20 -10 20 -5 0 -10
25 -10 56 0 49 4 59 30 84 35 33 37 40 10 40 -13 0 -20 7 -20 20 0 11 5 20 10
20 6 0 10 -4 10 -10 0 -5 9 -10 20 -10 17 0 20 7 20 40 0 22 -4 40 -10 40 -5
0 -10 8 -10 18 0 10 -9 24 -20 32 -11 8 -20 20 -20 28 0 7 -7 21 -16 29 -13
13 -17 14 -24 3 -7 -11 -11 -10 -24 3 -21 21 -20 27 4 27 11 0 20 5 20 10 0 6
14 10 30 10 23 0 30 -4 30 -20z m3300 -460 c0 -11 -4 -20 -10 -20 -6 0 -10
-30 -10 -70 0 -40 -4 -70 -10 -70 -5 0 -10 -18 -10 -40 0 -22 -4 -40 -10 -40
-5 0 -10 -18 -10 -40 0 -22 -4 -40 -10 -40 -5 0 -10 -13 -10 -30 0 -28 -2 -30
-40 -30 -38 0 -40 2 -40 30 0 17 -4 30 -10 30 -5 0 -10 18 -10 40 0 33 3 40
19 40 11 0 22 6 24 13 4 9 8 8 17 -3 9 -11 13 -12 17 -2 2 6 13 12 24 12 23 0
24 6 5 26 -17 16 -46 19 -46 4 0 -5 -18 -10 -40 -10 -32 0 -40 4 -40 18 0 10
-9 24 -20 32 -31 23 -26 50 10 50 17 0 30 5 30 10 0 6 9 10 20 10 11 0 20 5
20 10 0 6 9 10 20 10 11 0 20 5 20 10 0 6 8 10 18 10 9 0 28 14 42 30 30 35
40 37 40 10z m-100 -440 c0 -11 -4 -20 -10 -20 -5 0 -10 -7 -10 -16 0 -15 -23
-44 -34 -44 -3 0 -6 18 -6 40 0 33 3 40 20 40 11 0 20 5 20 10 0 6 5 10 10 10
6 0 10 -9 10 -20z m-3340 -280 c0 -16 -7 -20 -36 -20 -31 0 -64 18 -64 34 0 3
23 6 50 6 43 0 50 -3 50 -20z m3220 -25 c0 -14 -11 -37 -25 -50 -29 -30 -35
-31 -35 -5 0 11 5 20 10 20 6 0 10 7 10 15 0 17 20 44 33 45 4 0 7 -11 7 -25z
m-3150 -55 c8 -11 20 -20 28 -20 16 0 62 -45 62 -60 0 -19 -33 -47 -38 -32 -2
6 -10 12 -18 12 -25 0 -84 67 -84 95 0 31 29 34 50 5z m3070 -55 c0 -15 -42
-65 -55 -65 -13 0 -3 33 18 55 26 28 37 31 37 10z m-2850 -125 c8 -11 20 -20
28 -20 22 0 42 -26 42 -54 0 -19 -5 -26 -20 -26 -11 0 -20 5 -20 10 0 6 -7 10
-15 10 -9 0 -31 16 -51 35 -29 29 -33 37 -22 50 18 20 41 18 58 -5z m2890
-230 c0 -5 -4 -10 -10 -10 -5 0 -10 5 -10 10 0 6 5 10 10 10 6 0 10 -4 10 -10z
m-20 -100 c0 -5 -4 -10 -10 -10 -5 0 -10 -9 -10 -20 0 -11 -4 -20 -10 -20 -5
0 -10 -9 -10 -20 0 -16 -7 -20 -30 -20 -16 0 -30 -4 -30 -10 0 -5 -4 -10 -10
-10 -5 0 -10 9 -10 20 0 11 5 20 10 20 6 0 10 7 10 15 0 26 43 64 73 64 15 1
27 -3 27 -9z m-640 -380 c0 -5 -4 -10 -10 -10 -5 0 -10 5 -10 10 0 6 5 10 10
10 6 0 10 -4 10 -10z m-1580 -30 c0 -11 -4 -20 -10 -20 -5 0 -10 9 -10 20 0
11 5 20 10 20 6 0 10 -9 10 -20z m20 -80 c0 -11 5 -20 10 -20 6 0 10 -13 10
-30 0 -16 5 -30 10 -30 6 0 10 -7 10 -16 0 -15 23 -44 34 -44 3 0 6 18 6 40
l0 40 160 0 c100 0 160 -4 160 -10 0 -6 40 -10 100 -10 55 0 100 -3 100 -6 0
-11 -29 -34 -44 -34 -9 0 -16 -4 -16 -10 0 -5 -9 -10 -20 -10 -11 0 -20 -4
-20 -10 0 -5 -9 -10 -20 -10 -11 0 -20 -4 -20 -10 0 -5 -9 -10 -20 -10 -11 0
-20 -4 -20 -10 0 -5 -13 -10 -28 -10 -16 0 -34 -8 -42 -20 -8 -11 -26 -20 -40
-20 -14 0 -32 -9 -40 -20 -8 -11 -21 -20 -30 -20 -9 0 -22 -9 -30 -20 -29 -40
-130 -21 -130 24 0 9 -4 16 -10 16 -5 0 -10 9 -10 20 0 11 -4 20 -10 20 -5 0
-10 14 -10 30 0 17 -4 30 -10 30 -5 0 -10 14 -10 30 0 17 -4 30 -10 30 -5 0
-10 18 -10 40 0 22 -4 40 -10 40 -5 0 -10 9 -10 20 0 11 5 20 10 20 6 0 10 -9
10 -20z m1460 10 c0 -5 -4 -10 -10 -10 -5 0 -10 5 -10 10 0 6 5 10 10 10 6 0
10 -4 10 -10z m-120 -16 c0 -3 -7 -12 -15 -21 -20 -19 -32 -10 -14 11 14 15
29 21 29 10z m83 -26 c4 -10 8 -9 16 2 5 8 13 11 17 8 3 -4 -2 -15 -12 -25
-12 -13 -19 -14 -22 -5 -5 17 -22 15 -22 -4 0 -20 -29 -49 -38 -39 -4 4 -1 10
6 12 6 3 12 11 12 19 0 15 20 43 32 44 3 0 9 -6 11 -12z m117 -18 c0 -5 -4
-10 -10 -10 -5 0 -10 5 -10 10 0 6 5 10 10 10 6 0 10 -4 10 -10z m-60 -20 c0
-5 -4 -10 -10 -10 -5 0 -10 5 -10 10 0 6 5 10 10 10 6 0 10 -4 10 -10z m140 0
c0 -5 -9 -10 -20 -10 -11 0 -20 5 -20 10 0 6 9 10 20 10 11 0 20 -4 20 -10z
m-260 -60 c0 -5 -4 -10 -10 -10 -5 0 -10 5 -10 10 0 6 5 10 10 10 6 0 10 -4
10 -10z m80 -20 c0 -5 -9 -10 -20 -10 -11 0 -20 5 -20 10 0 6 9 10 20 10 11 0
20 -4 20 -10z m20 -60 c0 -5 -4 -10 -10 -10 -5 0 -10 5 -10 10 0 6 5 10 10 10
6 0 10 -4 10 -10z m143 -42 c4 -10 8 -9 16 2 5 8 13 11 17 8 3 -4 -1 -14 -10
-23 -14 -15 -18 -15 -31 -1 -8 8 -15 17 -15 20 0 11 18 6 23 -6z m97 2 c0 -5
-4 -10 -10 -10 -5 0 -10 5 -10 10 0 6 5 10 10 10 6 0 10 -4 10 -10z m80 0 c0
-5 -9 -10 -20 -10 -11 0 -20 5 -20 10 0 6 9 10 20 10 11 0 20 -4 20 -10z
m-300 -16 c0 -3 -6 -12 -14 -20 -17 -16 -46 -19 -46 -4 0 6 9 10 20 10 11 0
20 5 20 10 0 6 5 10 10 10 6 0 10 -3 10 -6z m440 -4 c0 -5 -9 -10 -20 -10 -11
0 -20 5 -20 10 0 6 9 10 20 10 11 0 20 -4 20 -10z m-140 -20 c0 -5 -4 -10 -10
-10 -5 0 -10 5 -10 10 0 6 5 10 10 10 6 0 10 -4 10 -10z m40 0 c0 -5 -4 -10
-10 -10 -5 0 -10 5 -10 10 0 6 5 10 10 10 6 0 10 -4 10 -10z m440 0 c0 -5 -9
-10 -20 -10 -11 0 -20 5 -20 10 0 6 9 10 20 10 11 0 20 -4 20 -10z m-580 -20
c0 -5 -4 -10 -10 -10 -5 0 -10 5 -10 10 0 6 5 10 10 10 6 0 10 -4 10 -10z
m100 -20 c0 -5 9 -10 20 -10 13 0 20 -7 20 -19 0 -11 6 -21 13 -24 6 -2 9 -8
5 -12 -4 -4 -21 6 -37 24 -16 17 -36 31 -45 31 -9 0 -16 5 -16 10 0 6 9 10 20
10 11 0 20 -4 20 -10z m106 -4 c19 -20 18 -26 -6 -26 -13 0 -20 7 -20 20 0 24
6 25 26 6z m-606 -16 c0 -5 -4 -10 -10 -10 -5 0 -10 5 -10 10 0 6 5 10 10 10
6 0 10 -4 10 -10z m980 -20 c0 -5 -9 -10 -20 -10 -11 0 -20 5 -20 10 0 6 9 10
20 10 11 0 20 -4 20 -10z m-1040 -20 c0 -5 -4 -10 -10 -10 -5 0 -10 5 -10 10
0 6 5 10 10 10 6 0 10 -4 10 -10z"/>
<path d="M1420 2810 c0 -5 -13 -10 -30 -10 -16 0 -30 -4 -30 -10 0 -5 -9 -10
-20 -10 -11 0 -20 -4 -20 -10 0 -5 -9 -10 -19 -10 -11 0 -22 -6 -25 -12 -5
-10 -7 -10 -12 0 -3 6 -13 12 -23 12 -9 0 -23 9 -31 20 -13 18 -50 28 -50 14
0 -3 14 -19 30 -34 17 -15 30 -33 30 -39 0 -7 -16 -27 -35 -46 -26 -27 -43
-35 -70 -35 -41 0 -43 -6 -14 -31 19 -16 20 -20 6 -34 -17 -17 -87 -21 -87 -5
0 6 -18 10 -40 10 -22 0 -40 -4 -40 -10 0 -5 8 -10 18 -10 10 0 24 -9 32 -20
8 -11 20 -20 28 -20 7 0 20 -6 28 -14 16 -17 19 -46 4 -46 -5 0 -10 -9 -10
-20 0 -12 -7 -20 -16 -20 -22 0 -53 -32 -36 -38 8 -2 12 -27 12 -73 l0 -69
-46 0 c-26 0 -51 -6 -60 -14 -19 -20 -18 -26 6 -26 11 0 20 -4 20 -10 0 -5 12
-10 26 -10 39 0 54 -22 54 -82 0 -42 4 -57 20 -68 11 -8 20 -22 20 -32 0 -10
5 -18 10 -18 6 0 10 40 10 100 0 60 4 100 10 100 6 0 10 18 10 40 0 22 5 40
10 40 6 0 10 14 10 30 0 17 5 30 10 30 6 0 10 14 10 30 0 17 5 30 10 30 6 0
10 9 10 20 0 11 5 20 10 20 6 0 10 7 10 15 0 18 104 125 121 125 6 0 24 14 39
30 15 17 35 30 44 30 9 0 16 5 16 10 0 6 9 10 20 10 11 0 20 5 20 10 0 6 18
10 40 10 22 0 40 5 40 10 0 6 23 10 50 10 28 0 50 -4 50 -10 0 -6 27 -10 60
-10 33 0 60 -4 60 -10 0 -5 9 -10 20 -10 11 0 20 -4 20 -10 0 -5 9 -10 20 -10
11 0 20 -4 20 -10 0 -5 7 -10 16 -10 8 0 33 -18 54 -40 21 -22 44 -40 50 -40
17 0 40 -26 40 -44 0 -9 5 -16 10 -16 6 0 10 -13 10 -30 0 -16 5 -30 10 -30 6
0 10 -9 10 -20 0 -11 5 -20 10 -20 6 0 10 -22 10 -50 0 -53 3 -58 26 -36 16
16 19 86 4 86 -5 0 -10 9 -10 20 0 13 7 20 20 20 11 0 20 5 20 10 0 6 -9 10
-20 10 -18 0 -20 7 -20 60 l0 60 36 0 c27 0 43 -7 65 -31 16 -18 33 -28 37
-24 4 4 1 10 -5 12 -8 3 -13 22 -13 44 0 21 -4 39 -10 39 -5 0 -10 7 -10 15 0
19 -84 105 -103 105 -7 0 -19 9 -27 20 -8 11 -22 20 -32 20 -10 0 -18 5 -18
10 0 6 -9 10 -20 10 -11 0 -20 5 -20 10 0 6 -9 10 -20 10 -11 0 -20 5 -20 10
0 6 -18 10 -40 10 -22 0 -40 -4 -40 -10 0 -5 14 -10 30 -10 17 0 30 -4 30 -10
0 -5 9 -10 20 -10 11 0 20 -4 20 -10 0 -5 7 -10 16 -10 9 0 29 -13 44 -30 15
-16 33 -30 40 -30 15 0 40 -25 40 -41 0 -6 9 -20 21 -30 19 -16 20 -20 6 -34
-20 -20 -67 -20 -67 0 0 20 -145 165 -165 165 -8 0 -15 5 -15 10 0 6 -9 10
-20 10 -11 0 -20 5 -20 10 0 6 -13 10 -30 10 -16 0 -30 5 -30 10 0 6 -18 10
-40 10 -22 0 -40 5 -40 10 0 6 -43 10 -110 10 -67 0 -110 -4 -110 -10z"/>
<path d="M1760 2810 c0 -5 5 -10 10 -10 6 0 10 5 10 10 0 6 -4 10 -10 10 -5 0
-10 -4 -10 -10z"/>
<path d="M1553 2585 c-19 -21 -16 -25 17 -25 28 0 30 -3 30 -36 0 -38 -18 -64
-44 -64 -9 0 -16 -4 -16 -10 0 -5 -22 -10 -50 -10 -27 0 -50 5 -50 10 0 6 5
10 10 10 6 0 10 9 10 20 0 11 5 20 10 20 6 0 10 9 10 20 0 11 5 20 10 20 6 0
10 5 10 10 0 6 -7 10 -15 10 -18 0 -105 -84 -105 -101 0 -6 -13 -24 -30 -39
-16 -15 -30 -35 -30 -44 0 -9 -4 -16 -10 -16 -5 0 -10 -9 -10 -20 0 -11 -4
-20 -10 -20 -5 0 -10 -13 -10 -30 0 -16 -4 -30 -10 -30 -6 0 -10 -47 -10 -120
0 -73 4 -120 10 -120 6 0 10 -22 10 -50 0 -27 5 -50 10 -50 6 0 10 -7 10 -15
0 -18 89 -110 97 -101 4 3 -4 14 -15 25 -12 10 -22 30 -22 45 0 14 -4 26 -10
26 -6 0 -10 49 -10 128 0 116 2 129 20 142 11 8 20 20 20 28 0 16 49 66 57 58
4 -3 -4 -14 -15 -25 -12 -10 -22 -26 -22 -35 0 -9 -4 -16 -10 -16 -6 0 -10
-27 -10 -60 0 -33 4 -60 10 -60 6 0 10 -11 10 -25 0 -22 57 -95 75 -95 3 0 5
43 5 96 0 98 9 124 44 124 9 0 16 5 16 10 0 6 23 10 50 10 43 0 50 -3 50 -20
0 -11 5 -20 10 -20 6 0 10 -26 10 -58 0 -46 -4 -60 -20 -72 -11 -8 -20 -22
-20 -32 0 -10 -4 -18 -10 -18 -5 0 -10 -13 -10 -30 0 -16 5 -30 10 -30 6 0 10
5 10 10 0 6 7 10 15 10 20 0 85 65 85 85 0 8 5 15 10 15 6 0 10 9 10 20 0 11
5 20 10 20 6 0 10 18 10 39 0 22 6 42 13 45 10 5 10 7 0 12 -20 9 -15 24 7 24
18 0 20 -7 20 -80 0 -47 -4 -80 -10 -80 -5 0 -10 -9 -10 -20 0 -11 -4 -20 -10
-20 -5 0 -10 -9 -10 -20 0 -11 -4 -20 -10 -20 -15 0 -12 -70 4 -86 19 -19 26
-18 26 4 0 10 9 24 20 32 11 8 20 21 20 30 0 9 9 22 20 30 14 10 20 26 20 52
0 21 5 38 10 38 6 0 10 14 10 30 0 17 5 30 10 30 6 0 10 53 10 140 0 87 -4
140 -10 140 -5 0 -10 13 -10 28 0 16 -8 34 -20 42 -11 8 -20 20 -20 27 0 19
-86 103 -105 103 -8 0 -15 5 -15 10 0 16 -153 12 -167 -5z"/>
<path d="M3320 2430 c0 -5 18 -10 40 -10 22 0 40 5 40 10 0 6 -18 10 -40 10
-22 0 -40 -4 -40 -10z"/>
<path d="M3440 2410 c0 -5 5 -10 10 -10 6 0 10 5 10 10 0 6 -4 10 -10 10 -5 0
-10 -4 -10 -10z"/>
<path d="M3300 2150 c0 -5 -9 -10 -20 -10 -11 0 -20 -4 -20 -10 0 -5 7 -10 16
-10 25 0 44 -26 44 -60 0 -38 -20 -60 -54 -60 -14 0 -26 -4 -26 -10 0 -5 -9
-10 -20 -10 -11 0 -20 -4 -20 -10 0 -5 -9 -10 -20 -10 -13 0 -20 7 -20 20 0
11 5 20 10 20 6 0 10 7 10 16 0 9 14 29 31 45 18 16 29 33 25 37 -4 3 -12 0
-17 -8 -8 -11 -12 -12 -16 -2 -2 6 -11 12 -19 12 -18 0 -104 -85 -104 -103 0
-7 -9 -19 -20 -27 -11 -8 -20 -22 -20 -32 0 -10 -4 -18 -10 -18 -5 0 -10 -9
-10 -20 0 -11 -4 -20 -10 -20 -5 0 -10 -13 -10 -30 0 -16 -4 -30 -10 -30 -5 0
-10 -9 -10 -20 0 -11 -4 -20 -10 -20 -5 0 -10 -13 -10 -30 0 -16 -4 -30 -10
-30 -6 0 -10 -33 -10 -80 0 -47 4 -80 10 -80 6 0 10 -13 10 -30 0 -16 5 -30
10 -30 6 0 10 -9 10 -20 0 -11 5 -20 10 -20 6 0 10 -9 10 -20 0 -11 5 -20 10
-20 6 0 10 -7 10 -16 0 -15 23 -44 34 -44 3 0 6 9 6 20 0 11 -4 20 -10 20 -5
0 -10 9 -10 20 0 11 -4 20 -10 20 -6 0 -10 40 -10 100 0 60 4 100 10 100 6 0
10 9 10 20 0 11 5 20 10 20 6 0 10 13 10 28 0 16 8 34 20 42 11 8 20 20 20 28
0 18 29 46 38 37 4 -4 1 -10 -5 -12 -7 -3 -13 -13 -13 -24 0 -10 -4 -19 -10
-19 -6 0 -10 -30 -10 -70 0 -40 4 -70 10 -70 6 0 10 -18 10 -40 0 -33 3 -40
20 -40 11 0 20 -4 20 -10 0 -5 5 -10 10 -10 6 0 10 35 10 85 0 85 0 86 37 122
22 23 38 32 41 25 2 -7 17 -12 33 -12 16 0 29 -4 29 -10 0 -5 7 -10 16 -10 30
0 44 -27 44 -84 0 -31 -4 -56 -10 -56 -5 0 -10 -7 -10 -16 0 -23 -25 -44 -54
-44 -19 0 -26 -5 -26 -20 0 -16 7 -20 35 -20 29 0 44 9 80 45 25 24 45 51 45
60 0 8 5 15 10 15 6 0 10 9 10 20 0 11 5 20 10 20 6 0 10 9 10 20 0 11 5 20
10 20 6 0 10 -30 10 -70 0 -40 -4 -70 -10 -70 -5 0 -10 -9 -10 -20 0 -11 -4
-20 -10 -20 -5 0 -10 -7 -10 -16 0 -9 -13 -29 -30 -44 -32 -30 -40 -60 -15
-60 19 0 105 84 105 103 0 7 9 19 20 27 12 8 20 26 20 42 0 15 5 28 10 28 6 0
10 9 10 20 0 11 5 20 10 20 6 0 10 23 10 50 0 28 5 50 10 50 6 0 10 23 10 50
0 28 -4 50 -10 50 -5 0 -10 9 -10 20 0 11 5 20 10 20 6 0 10 18 10 40 0 22 -4
40 -10 40 -5 0 -10 14 -10 30 0 17 -4 30 -10 30 -5 0 -10 9 -10 20 0 11 -4 20
-10 20 -5 0 -10 7 -10 15 0 21 -72 93 -78 77 -4 -14 -42 -16 -42 -2 0 6 -13
10 -30 10 -16 0 -30 5 -30 10 0 6 -18 10 -40 10 -22 0 -40 -4 -40 -10z"/>
<path d="M980 1970 c0 -5 5 -10 10 -10 6 0 10 5 10 10 0 6 -4 10 -10 10 -5 0
-10 -4 -10 -10z"/>
<path d="M1680 1810 c0 -5 -8 -10 -18 -10 -10 0 -24 -9 -32 -20 -8 -11 -22
-20 -32 -20 -10 0 -18 -4 -18 -10 0 -5 14 -10 30 -10 17 0 30 5 30 10 0 6 12
10 26 10 14 0 32 6 40 14 21 21 17 46 -6 46 -11 0 -20 -4 -20 -10z"/>
<path d="M1100 1720 c0 -24 6 -25 26 -6 19 20 18 26 -6 26 -13 0 -20 -7 -20
-20z"/>
<path d="M1160 1690 c0 -16 -4 -30 -10 -30 -5 0 -10 -4 -10 -10 0 -6 27 -10
60 -10 53 0 60 -2 60 -20 0 -24 6 -25 26 -6 19 19 18 26 -4 26 -10 0 -24 9
-32 20 -8 11 -21 20 -30 20 -9 0 -22 9 -30 20 -20 28 -30 25 -30 -10z"/>
<path d="M2273 1445 c-7 -8 -13 -25 -13 -39 0 -13 -6 -26 -12 -29 -7 -2 -10
-8 -6 -12 12 -12 38 22 38 49 0 14 5 26 10 26 6 0 10 5 10 10 0 14 -13 12 -27
-5z"/>
<path d="M3340 1350 c0 -5 -9 -10 -20 -10 -11 0 -20 -4 -20 -10 0 -5 -9 -10
-20 -10 -11 0 -20 -4 -20 -10 0 -15 70 -12 86 4 16 17 19 46 4 46 -5 0 -10 -4
-10 -10z"/>
<path d="M1660 1190 c0 -5 -12 -10 -26 -10 -14 0 -32 -6 -40 -14 -16 -17 -19
-66 -4 -66 6 0 10 -13 10 -30 0 -16 5 -30 10 -30 6 0 10 -12 10 -26 0 -16 12
-37 30 -54 17 -15 30 -33 30 -39 0 -15 126 -141 141 -141 6 0 24 -13 39 -30
15 -16 35 -30 44 -30 9 0 16 -4 16 -10 0 -5 9 -10 20 -10 11 0 20 -4 20 -10 0
-5 9 -10 20 -10 11 0 20 -4 20 -10 0 -5 14 -10 30 -10 17 0 30 -4 30 -10 0 -6
27 -10 60 -10 33 0 60 -4 60 -10 0 -6 27 -10 60 -10 33 0 60 4 60 10 0 6 27
10 60 10 33 0 60 4 60 10 0 6 14 10 30 10 17 0 30 5 30 10 0 6 14 10 30 10 17
0 30 5 30 10 0 6 9 10 20 10 11 0 20 5 20 10 0 6 9 10 20 10 11 0 20 5 20 10
0 6 9 10 20 10 11 0 20 5 20 10 0 6 7 10 15 10 20 0 85 65 85 85 0 8 5 15 10
15 6 0 10 11 10 25 0 29 -40 75 -65 75 -8 0 -15 5 -15 10 0 6 -9 10 -19 10
-11 0 -21 6 -24 13 -2 7 -8 8 -13 3 -5 -5 -4 -11 4 -13 6 -3 12 -9 12 -14 0
-15 -257 -11 -263 4 -4 9 -8 8 -17 -3 -9 -11 -13 -12 -17 -2 -3 8 -30 12 -84
12 -46 0 -79 4 -79 10 0 6 -22 10 -50 10 -27 0 -50 5 -50 10 0 6 -18 10 -40
10 -22 0 -40 5 -40 10 0 6 -18 10 -40 10 -22 0 -40 5 -40 10 0 6 -13 10 -30
10 -16 0 -30 5 -30 10 0 6 -13 10 -30 10 -16 0 -30 5 -30 10 0 6 -9 10 -20 10
-11 0 -20 5 -20 10 0 6 -9 10 -20 10 -11 0 -20 5 -20 10 0 6 -9 10 -20 10 -13
0 -20 7 -20 20 0 19 7 20 140 20 87 0 140 4 140 10 0 6 -60 10 -160 10 -100 0
-160 -4 -160 -10z"/>
<path d="M2000 1170 c0 -6 30 -10 70 -10 40 0 70 -4 70 -10 0 -5 18 -10 40
-10 22 0 40 -4 40 -10 0 -5 18 -10 40 -10 22 0 40 -4 40 -10 0 -5 18 -10 40
-10 22 0 40 -4 40 -10 0 -5 9 -10 20 -10 11 0 20 5 20 10 0 6 -9 10 -20 10
-11 0 -20 5 -20 10 0 6 -18 10 -40 10 -22 0 -40 5 -40 10 0 6 -13 10 -30 10
-16 0 -30 5 -30 10 0 6 -22 10 -50 10 -27 0 -50 5 -50 10 0 6 -30 10 -70 10
-40 0 -70 -4 -70 -10z"/>
<path d="M3460 1170 c0 -5 9 -10 20 -10 11 0 20 5 20 10 0 6 -9 10 -20 10 -11
0 -20 -4 -20 -10z"/>
<path d="M3260 1155 c0 -3 11 -17 25 -30 30 -31 75 -34 75 -5 0 16 7 20 30 20
17 0 30 -4 30 -10 0 -5 5 -10 10 -10 6 0 10 9 10 20 0 19 -7 20 -90 20 -49 0
-90 -2 -90 -5z"/>
<path d="M2440 1070 c0 -5 9 -10 20 -10 11 0 20 5 20 10 0 6 -9 10 -20 10 -11
0 -20 -4 -20 -10z"/>
<path d="M2500 1050 c0 -5 5 -10 10 -10 6 0 10 5 10 10 0 6 -4 10 -10 10 -5 0
-10 -4 -10 -10z"/>
<path d="M2560 1030 c0 -5 5 -10 10 -10 6 0 10 5 10 10 0 6 -4 10 -10 10 -5 0
-10 -4 -10 -10z"/>
<path d="M2600 1010 c0 -5 5 -10 10 -10 6 0 10 5 10 10 0 6 -4 10 -10 10 -5 0
-10 -4 -10 -10z"/>
<path d="M3100 3810 c0 -27 5 -50 10 -50 6 0 10 23 10 50 0 28 -4 50 -10 50
-5 0 -10 -22 -10 -50z"/>
<path d="M4480 3550 c0 -5 5 -10 10 -10 6 0 10 5 10 10 0 6 -4 10 -10 10 -5 0
-10 -4 -10 -10z"/>
<path d="M2760 3330 c0 -5 5 -10 10 -10 6 0 10 5 10 10 0 6 -4 10 -10 10 -5 0
-10 -4 -10 -10z"/>
<path d="M3020 3210 c0 -5 5 -10 10 -10 6 0 10 5 10 10 0 6 -4 10 -10 10 -5 0
-10 -4 -10 -10z"/>
<path d="M3000 3150 c0 -5 5 -10 10 -10 6 0 10 5 10 10 0 6 -4 10 -10 10 -5 0
-10 -4 -10 -10z"/>
<path d="M2980 3110 c0 -5 5 -10 10 -10 6 0 10 5 10 10 0 6 -4 10 -10 10 -5 0
-10 -4 -10 -10z"/>
<path d="M2960 3040 c0 -11 -4 -20 -10 -20 -5 0 -10 -9 -10 -20 0 -11 -4 -20
-10 -20 -5 0 -10 -9 -10 -20 0 -11 -4 -20 -10 -20 -5 0 -10 -8 -10 -18 0 -10
-9 -24 -20 -32 -21 -15 -28 -50 -10 -50 6 0 10 8 10 18 0 10 9 24 20 32 11 8
20 22 20 32 0 10 5 18 10 18 6 0 10 9 10 20 0 11 5 20 10 20 6 0 10 9 10 20 0
11 5 20 10 20 6 0 10 9 10 20 0 11 -4 20 -10 20 -5 0 -10 -9 -10 -20z"/>
<path d="M2833 2805 c-7 -8 -13 -19 -13 -26 0 -6 -10 -20 -22 -30 -11 -11 -19
-22 -15 -25 9 -9 57 42 57 61 0 8 5 15 10 15 6 0 10 5 10 10 0 14 -13 12 -27
-5z"/>
<path d="M2751 2684 c-18 -21 -6 -30 14 -11 8 9 15 18 15 21 0 11 -15 5 -29
-10z"/>
<path d="M3171 524 c-7 -8 -10 -18 -6 -22 3 -3 11 0 16 8 8 11 12 12 16 3 2
-7 11 -13 20 -13 14 0 43 23 43 34 0 12 -38 6 -44 -6 -5 -10 -7 -10 -12 0 -7
16 -16 15 -33 -4z"/>
<path d="M3760 530 c0 -5 5 -10 10 -10 6 0 10 5 10 10 0 6 -4 10 -10 10 -5 0
-10 -4 -10 -10z"/>
<path d="M3380 510 c0 -5 5 -10 10 -10 6 0 10 5 10 10 0 6 -4 10 -10 10 -5 0
-10 -4 -10 -10z"/>
<path d="M3660 510 c0 -5 5 -10 10 -10 6 0 10 5 10 10 0 6 -4 10 -10 10 -5 0
-10 -4 -10 -10z"/>
<path d="M3500 350 c0 -5 5 -10 10 -10 6 0 10 5 10 10 0 6 -4 10 -10 10 -5 0
-10 -4 -10 -10z"/>
<path d="M3820 190 c0 -5 5 -10 10 -10 6 0 10 5 10 10 0 6 -4 10 -10 10 -5 0
-10 -4 -10 -10z"/>
<path d="M4540 130 c0 -5 5 -10 10 -10 6 0 10 5 10 10 0 6 -4 10 -10 10 -5 0
-10 -4 -10 -10z"/>
<path d="M3900 110 c0 -6 27 -10 60 -10 33 0 60 4 60 10 0 6 -27 10 -60 10
-33 0 -60 -4 -60 -10z"/>
<path d="M4460 110 c0 -5 5 -10 10 -10 6 0 10 5 10 10 0 6 -4 10 -10 10 -5 0
-10 -4 -10 -10z"/>
<path d="M4500 90 c0 -5 9 -10 20 -10 11 0 20 5 20 10 0 6 -9 10 -20 10 -11 0
-20 -4 -20 -10z"/>
<path d="M1500 50 c0 -5 -18 -10 -40 -10 -22 0 -40 -4 -40 -10 0 -5 -13 -10
-30 -10 -16 0 -30 -4 -30 -10 0 -6 42 -10 106 -10 80 0 109 4 120 15 14 13 14
17 0 30 -16 17 -86 21 -86 5z"/>
<path d="M4140 40 c0 -17 7 -20 40 -20 22 0 40 -4 40 -10 0 -6 30 -10 70 -10
40 0 70 4 70 10 0 6 -27 10 -60 10 -33 0 -60 4 -60 10 0 6 -9 10 -20 10 -11 0
-20 5 -20 10 0 6 -13 10 -30 10 -23 0 -30 -4 -30 -20z"/>
<path d="M4020 10 c0 -5 18 -10 40 -10 22 0 40 5 40 10 0 6 -18 10 -40 10 -22
0 -40 -4 -40 -10z"/>
</g>
</svg>
